<?xml version="1.0" encoding="utf-8" standalone="no"?>
<!DOCTYPE svg PUBLIC "-//W3C//DTD SVG 1.1//EN"
  "http://www.w3.org/Graphics/SVG/1.1/DTD/svg11.dtd">
<svg xmlns:xlink="http://www.w3.org/1999/xlink" width="720pt" height="1008pt" viewBox="0 0 720 1008" xmlns="http://www.w3.org/2000/svg" version="1.1">
 <defs>
  <style type="text/css">*{stroke-linejoin: round; stroke-linecap: butt}</style>
 </defs>
 <g id="figure_1">
  <g id="patch_1">
   <path d="M 0 1008 
L 720 1008 
L 720 0 
L 0 0 
z
" style="fill: #ffffff"/>
  </g>
  <g id="axes_1">
   <g id="patch_2">
    <path d="M 0 1008 
L 720 1008 
L 720 0 
L 0 0 
z
" clip-path="url(#p16538d91c6)" style="fill: #ffffff; stroke: #ffffff; stroke-linejoin: miter"/>
   </g>
   <g id="patch_3">
    <path d="M 0 1008 
Q 0 0 0 0 
L 720 0 
L 720 1008 
z
" clip-path="url(#p16538d91c6)" style="fill: #ffffff"/>
   </g>
   <g id="patch_4">
    <path d="M 12.307692 564.26087 
Q 12.307692 1008 12.307692 1008 
L 720 1008 
L 720 564.26087 
z
" clip-path="url(#p16538d91c6)" style="fill: #ffffff"/>
   </g>
   <g id="patch_5">
    <path d="M 36.923077 564.26087 
Q 36.923077 1008 36.923077 1008 
L 720 1008 
L 720 564.26087 
z
" clip-path="url(#p16538d91c6)" style="fill: #ffffff"/>
   </g>
   <g id="patch_6">
    <path d="M 61.538462 454.695652 
Q 61.538462 553.304348 61.538462 553.304348 
L 720 553.304348 
L 720 454.695652 
z
" clip-path="url(#p16538d91c6)" style="fill: #ffffff"/>
   </g>
   <g id="patch_7">
    <path d="M 61.538462 564.26087 
Q 61.538462 1008 61.538462 1008 
L 720 1008 
L 720 564.26087 
z
" clip-path="url(#p16538d91c6)" style="fill: #ffffff"/>
   </g>
   <g id="patch_8">
    <path d="M 80 449.217391 
Q 61.538462 449.217391 61.538462 454.695652 
L 720 454.695652 
L 720 449.217391 
z
" clip-path="url(#p16538d91c6)" style="fill: #ffffff"/>
   </g>
   <g id="patch_9">
    <path d="M 86.153846 498.521739 
Q 86.153846 553.304348 86.153846 553.304348 
L 720 553.304348 
L 720 498.521739 
z
" clip-path="url(#p16538d91c6)" style="fill: #ffffff"/>
   </g>
   <g id="patch_10">
    <path d="M 86.153846 564.26087 
Q 86.153846 1008 86.153846 1008 
L 720 1008 
L 720 564.26087 
z
" clip-path="url(#p16538d91c6)" style="fill: #ffffff"/>
   </g>
   <g id="patch_11">
    <path d="M 80 449.217391 
Q 98.461538 449.217391 98.461538 454.695652 
L 720 454.695652 
L 720 449.217391 
z
" clip-path="url(#p16538d91c6)" style="fill: #ffffff"/>
   </g>
   <g id="patch_12">
    <path d="M 98.461538 493.043478 
Q 86.153846 493.043478 86.153846 498.521739 
L 720 498.521739 
L 720 493.043478 
z
" clip-path="url(#p16538d91c6)" style="fill: #ffffff"/>
   </g>
   <g id="patch_13">
    <path d="M 98.461538 454.695652 
Q 98.461538 465.652174 98.461538 465.652174 
L 720 465.652174 
L 720 454.695652 
z
" clip-path="url(#p16538d91c6)" style="fill: #ffffff"/>
   </g>
   <g id="patch_14">
    <path d="M 98.461538 476.608696 
Q 98.461538 487.565217 98.461538 487.565217 
L 720 487.565217 
L 720 476.608696 
z
" clip-path="url(#p16538d91c6)" style="fill: #ffffff"/>
   </g>
   <g id="patch_15">
    <path d="M 98.461538 487.565217 
Q 98.461538 493.043478 98.461538 493.043478 
L 720 493.043478 
L 720 487.565217 
z
" clip-path="url(#p16538d91c6)" style="fill: #ffffff"/>
   </g>
   <g id="patch_16">
    <path d="M 104.615385 465.652174 
Q 104.615385 476.608696 104.615385 476.608696 
L 720 476.608696 
L 720 465.652174 
z
" clip-path="url(#p16538d91c6)" style="fill: #ffffff"/>
   </g>
   <g id="patch_17">
    <path d="M 98.461538 493.043478 
Q 123.076923 493.043478 123.076923 498.521739 
L 720 498.521739 
L 720 493.043478 
z
" clip-path="url(#p16538d91c6)" style="fill: #ffffff"/>
   </g>
   <g id="patch_18">
    <path d="M 110.769231 542.347826 
Q 110.769231 553.304348 110.769231 553.304348 
L 720 553.304348 
L 720 542.347826 
z
" clip-path="url(#p16538d91c6)" style="fill: #ffffff"/>
   </g>
   <g id="patch_19">
    <path d="M 110.769231 564.26087 
Q 110.769231 1008 110.769231 1008 
L 720 1008 
L 720 564.26087 
z
" clip-path="url(#p16538d91c6)" style="fill: #ffffff"/>
   </g>
   <g id="patch_20">
    <path d="M 123.076923 536.869565 
Q 110.769231 536.869565 110.769231 542.347826 
L 720 542.347826 
L 720 536.869565 
z
" clip-path="url(#p16538d91c6)" style="fill: #ffffff"/>
   </g>
   <g id="patch_21">
    <path d="M 123.076923 498.521739 
Q 123.076923 509.478261 123.076923 509.478261 
L 720 509.478261 
L 720 498.521739 
z
" clip-path="url(#p16538d91c6)" style="fill: #ffffff"/>
   </g>
   <g id="patch_22">
    <path d="M 123.076923 520.434783 
Q 123.076923 531.391304 123.076923 531.391304 
L 720 531.391304 
L 720 520.434783 
z
" clip-path="url(#p16538d91c6)" style="fill: #ffffff"/>
   </g>
   <g id="patch_23">
    <path d="M 123.076923 531.391304 
Q 123.076923 536.869565 123.076923 536.869565 
L 720 536.869565 
L 720 531.391304 
z
" clip-path="url(#p16538d91c6)" style="fill: #ffffff"/>
   </g>
   <g id="patch_24">
    <path d="M 123.076923 536.869565 
Q 135.384615 536.869565 135.384615 542.347826 
L 720 542.347826 
L 720 536.869565 
z
" clip-path="url(#p16538d91c6)" style="fill: #ffffff"/>
   </g>
   <g id="patch_25">
    <path d="M 129.230769 509.478261 
Q 129.230769 520.434783 129.230769 520.434783 
L 720 520.434783 
L 720 509.478261 
z
" clip-path="url(#p16538d91c6)" style="fill: #ffffff"/>
   </g>
   <g id="patch_26">
    <path d="M 135.384615 542.347826 
Q 135.384615 553.304348 135.384615 553.304348 
L 720 553.304348 
L 720 542.347826 
z
" clip-path="url(#p16538d91c6)" style="fill: #ffffff"/>
   </g>
   <g id="patch_27">
    <path d="M 135.384615 564.26087 
Q 135.384615 1008 135.384615 1008 
L 720 1008 
L 720 564.26087 
z
" clip-path="url(#p16538d91c6)" style="fill: #ffffff"/>
   </g>
   <g id="patch_28">
    <path d="M 160 564.26087 
Q 160 1008 160 1008 
L 720 1008 
L 720 564.26087 
z
" clip-path="url(#p16538d91c6)" style="fill: #ffffff"/>
   </g>
   <g id="patch_29">
    <path d="M 184.615385 564.26087 
Q 184.615385 1008 184.615385 1008 
L 720 1008 
L 720 564.26087 
z
" clip-path="url(#p16538d91c6)" style="fill: #ffffff"/>
   </g>
   <g id="patch_30">
    <path d="M 190.769231 553.304348 
Q 190.769231 564.26087 190.769231 564.26087 
L 720 564.26087 
L 720 553.304348 
z
" clip-path="url(#p16538d91c6)" style="fill: #ffffff"/>
   </g>
   <g id="patch_31">
    <path d="M 235.384615 126 
Q 235.384615 1008 235.384615 1008 
L 720 1008 
L 720 126 
z
" clip-path="url(#p16538d91c6)" style="fill: #ffffff"/>
   </g>
   <g id="patch_32">
    <path d="M 247.692308 104.086957 
Q 247.692308 115.043478 247.692308 115.043478 
L 720 115.043478 
L 720 104.086957 
z
" clip-path="url(#p16538d91c6)" style="fill: #ffffff"/>
   </g>
   <g id="patch_33">
    <path d="M 260 93.130435 
Q 260 104.086957 260 104.086957 
L 720 104.086957 
L 720 93.130435 
z
" clip-path="url(#p16538d91c6)" style="fill: #ffffff"/>
   </g>
   <g id="patch_34">
    <path d="M 261.538462 169.826087 
Q 261.538462 1008 261.538462 1008 
L 720 1008 
L 720 169.826087 
z
" clip-path="url(#p16538d91c6)" style="fill: #ffffff"/>
   </g>
   <g id="patch_35">
    <path d="M 273.846154 147.913043 
Q 273.846154 158.869565 273.846154 158.869565 
L 720 158.869565 
L 720 147.913043 
z
" clip-path="url(#p16538d91c6)" style="fill: #ffffff"/>
   </g>
   <g id="patch_36">
    <path d="M 286.153846 136.956522 
Q 286.153846 147.913043 286.153846 147.913043 
L 720 147.913043 
L 720 136.956522 
z
" clip-path="url(#p16538d91c6)" style="fill: #ffffff"/>
   </g>
   <g id="patch_37">
    <path d="M 287.692308 169.826087 
Q 287.692308 224.608696 287.692308 224.608696 
L 720 224.608696 
L 720 169.826087 
z
" clip-path="url(#p16538d91c6)" style="fill: #ffffff"/>
   </g>
   <g id="patch_38">
    <path d="M 287.692308 235.565217 
Q 287.692308 312.26087 287.692308 312.26087 
L 720 312.26087 
L 720 235.565217 
z
" clip-path="url(#p16538d91c6)" style="fill: #ffffff"/>
   </g>
   <g id="patch_39">
    <path d="M 287.692308 454.695652 
Q 287.692308 684.782609 287.692308 684.782609 
L 720 684.782609 
L 720 454.695652 
z
" clip-path="url(#p16538d91c6)" style="fill: #ffffff"/>
   </g>
   <g id="patch_40">
    <path d="M 287.692308 695.73913 
Q 287.692308 1008 287.692308 1008 
L 720 1008 
L 720 695.73913 
z
" clip-path="url(#p16538d91c6)" style="fill: #ffffff"/>
   </g>
   <g id="patch_41">
    <path d="M 293.846154 158.869565 
Q 293.846154 169.826087 293.846154 169.826087 
L 720 169.826087 
L 720 158.869565 
z
" clip-path="url(#p16538d91c6)" style="fill: #ffffff"/>
   </g>
   <g id="patch_42">
    <path d="M 300 432.782609 
Q 300 443.73913 300 443.73913 
L 720 443.73913 
L 720 432.782609 
z
" clip-path="url(#p16538d91c6)" style="fill: #ffffff"/>
   </g>
   <g id="patch_43">
    <path d="M 312.307692 421.826087 
Q 312.307692 432.782609 312.307692 432.782609 
L 720 432.782609 
L 720 421.826087 
z
" clip-path="url(#p16538d91c6)" style="fill: #ffffff"/>
   </g>
   <g id="patch_44">
    <path d="M 313.846154 498.521739 
Q 313.846154 684.782609 313.846154 684.782609 
L 720 684.782609 
L 720 498.521739 
z
" clip-path="url(#p16538d91c6)" style="fill: #ffffff"/>
   </g>
   <g id="patch_45">
    <path d="M 313.846154 695.73913 
Q 313.846154 1008 313.846154 1008 
L 720 1008 
L 720 695.73913 
z
" clip-path="url(#p16538d91c6)" style="fill: #ffffff"/>
   </g>
   <g id="patch_46">
    <path d="M 320 684.782609 
Q 320 695.73913 320 695.73913 
L 720 695.73913 
L 720 684.782609 
z
" clip-path="url(#p16538d91c6)" style="fill: #ffffff"/>
   </g>
   <g id="patch_47">
    <path d="M 326.153846 476.608696 
Q 326.153846 487.565217 326.153846 487.565217 
L 720 487.565217 
L 720 476.608696 
z
" clip-path="url(#p16538d91c6)" style="fill: #ffffff"/>
   </g>
   <g id="patch_48">
    <path d="M 338.461538 465.652174 
Q 338.461538 476.608696 338.461538 476.608696 
L 720 476.608696 
L 720 465.652174 
z
" clip-path="url(#p16538d91c6)" style="fill: #ffffff"/>
   </g>
   <g id="patch_49">
    <path d="M 340 498.521739 
Q 340 553.304348 340 553.304348 
L 720 553.304348 
L 720 498.521739 
z
" clip-path="url(#p16538d91c6)" style="fill: #ffffff"/>
   </g>
   <g id="patch_50">
    <path d="M 340 564.26087 
Q 340 640.956522 340 640.956522 
L 720 640.956522 
L 720 564.26087 
z
" clip-path="url(#p16538d91c6)" style="fill: #ffffff"/>
   </g>
   <g id="patch_51">
    <path d="M 340 783.391304 
Q 340 1008 340 1008 
L 720 1008 
L 720 783.391304 
z
" clip-path="url(#p16538d91c6)" style="fill: #ffffff"/>
   </g>
   <g id="patch_52">
    <path d="M 346.153846 487.565217 
Q 346.153846 498.521739 346.153846 498.521739 
L 720 498.521739 
L 720 487.565217 
z
" clip-path="url(#p16538d91c6)" style="fill: #ffffff"/>
   </g>
   <g id="patch_53">
    <path d="M 352.307692 761.478261 
Q 352.307692 772.434783 352.307692 772.434783 
L 720 772.434783 
L 720 761.478261 
z
" clip-path="url(#p16538d91c6)" style="fill: #ffffff"/>
   </g>
   <g id="patch_54">
    <path d="M 364.615385 750.521739 
Q 364.615385 761.478261 364.615385 761.478261 
L 720 761.478261 
L 720 750.521739 
z
" clip-path="url(#p16538d91c6)" style="fill: #ffffff"/>
   </g>
   <g id="patch_55">
    <path d="M 366.153846 827.217391 
Q 366.153846 1008 366.153846 1008 
L 720 1008 
L 720 827.217391 
z
" clip-path="url(#p16538d91c6)" style="fill: #ffffff"/>
   </g>
   <g id="patch_56">
    <path d="M 378.461538 805.304348 
Q 378.461538 816.26087 378.461538 816.26087 
L 720 816.26087 
L 720 805.304348 
z
" clip-path="url(#p16538d91c6)" style="fill: #ffffff"/>
   </g>
   <g id="patch_57">
    <path d="M 390.769231 794.347826 
Q 390.769231 805.304348 390.769231 805.304348 
L 720 805.304348 
L 720 794.347826 
z
" clip-path="url(#p16538d91c6)" style="fill: #ffffff"/>
   </g>
   <g id="patch_58">
    <path d="M 392.307692 827.217391 
Q 392.307692 882 392.307692 882 
L 720 882 
L 720 827.217391 
z
" clip-path="url(#p16538d91c6)" style="fill: #ffffff"/>
   </g>
   <g id="patch_59">
    <path d="M 392.307692 892.956522 
Q 392.307692 969.652174 392.307692 969.652174 
L 720 969.652174 
L 720 892.956522 
z
" clip-path="url(#p16538d91c6)" style="fill: #ffffff"/>
   </g>
   <g id="patch_60">
    <path d="M 398.461538 816.26087 
Q 398.461538 827.217391 398.461538 827.217391 
L 720 827.217391 
L 720 816.26087 
z
" clip-path="url(#p16538d91c6)" style="fill: #ffffff"/>
   </g>
   <g id="patch_61">
    <path d="M 418.461538 783.391304 
Q 418.461538 882 418.461538 882 
L 720 882 
L 720 783.391304 
z
" clip-path="url(#p16538d91c6)" style="fill: #ffffff"/>
   </g>
   <g id="patch_62">
    <path d="M 418.461538 892.956522 
Q 418.461538 925.826087 418.461538 925.826087 
L 720 925.826087 
L 720 892.956522 
z
" clip-path="url(#p16538d91c6)" style="fill: #ffffff"/>
   </g>
   <g id="patch_63">
    <path d="M 424.615385 772.434783 
Q 424.615385 783.391304 424.615385 783.391304 
L 720 783.391304 
L 720 772.434783 
z
" clip-path="url(#p16538d91c6)" style="fill: #ffffff"/>
   </g>
   <g id="patch_64">
    <path d="M 424.615385 882 
Q 424.615385 892.956522 424.615385 892.956522 
L 720 892.956522 
L 720 882 
z
" clip-path="url(#p16538d91c6)" style="fill: #ffffff"/>
   </g>
   <g id="patch_65">
    <path d="M 426.153846 454.695652 
Q 426.153846 553.304348 426.153846 553.304348 
L 720 553.304348 
L 720 454.695652 
z
" clip-path="url(#p16538d91c6)" style="fill: #ffffff"/>
   </g>
   <g id="patch_66">
    <path d="M 426.153846 564.26087 
Q 426.153846 597.130435 426.153846 597.130435 
L 720 597.130435 
L 720 564.26087 
z
" clip-path="url(#p16538d91c6)" style="fill: #ffffff"/>
   </g>
   <g id="patch_67">
    <path d="M 432.307692 443.73913 
Q 432.307692 454.695652 432.307692 454.695652 
L 720 454.695652 
L 720 443.73913 
z
" clip-path="url(#p16538d91c6)" style="fill: #ffffff"/>
   </g>
   <g id="patch_68">
    <path d="M 432.307692 553.304348 
Q 432.307692 564.26087 432.307692 564.26087 
L 720 564.26087 
L 720 553.304348 
z
" clip-path="url(#p16538d91c6)" style="fill: #ffffff"/>
   </g>
   <g id="patch_69">
    <path d="M 433.846154 126 
Q 433.846154 224.608696 433.846154 224.608696 
L 720 224.608696 
L 720 126 
z
" clip-path="url(#p16538d91c6)" style="fill: #ffffff"/>
   </g>
   <g id="patch_70">
    <path d="M 433.846154 235.565217 
Q 433.846154 268.434783 433.846154 268.434783 
L 720 268.434783 
L 720 235.565217 
z
" clip-path="url(#p16538d91c6)" style="fill: #ffffff"/>
   </g>
   <g id="patch_71">
    <path d="M 440 115.043478 
Q 440 126 440 126 
L 720 126 
L 720 115.043478 
z
" clip-path="url(#p16538d91c6)" style="fill: #ffffff"/>
   </g>
   <g id="patch_72">
    <path d="M 440 224.608696 
Q 440 235.565217 440 235.565217 
L 720 235.565217 
L 720 224.608696 
z
" clip-path="url(#p16538d91c6)" style="fill: #ffffff"/>
   </g>
   <g id="patch_73">
    <path d="M 449.230769 279.391304 
Q 449.230769 290.347826 449.230769 290.347826 
L 720 290.347826 
L 720 279.391304 
z
" clip-path="url(#p16538d91c6)" style="fill: #ffffff"/>
   </g>
   <g id="patch_74">
    <path d="M 449.230769 323.217391 
Q 449.230769 334.173913 449.230769 334.173913 
L 720 334.173913 
L 720 323.217391 
z
" clip-path="url(#p16538d91c6)" style="fill: #ffffff"/>
   </g>
   <g id="patch_75">
    <path d="M 462.307692 16.434783 
Q 462.307692 71.217391 462.307692 71.217391 
L 720 71.217391 
L 720 16.434783 
z
" clip-path="url(#p16538d91c6)" style="fill: #ffffff"/>
   </g>
   <g id="patch_76">
    <path d="M 462.307692 82.173913 
Q 462.307692 246.521739 462.307692 246.521739 
L 720 246.521739 
L 720 82.173913 
z
" clip-path="url(#p16538d91c6)" style="fill: #ffffff"/>
   </g>
   <g id="patch_77">
    <path d="M 462.307692 257.478261 
Q 462.307692 268.434783 462.307692 268.434783 
L 720 268.434783 
L 720 257.478261 
z
" clip-path="url(#p16538d91c6)" style="fill: #ffffff"/>
   </g>
   <g id="patch_78">
    <path d="M 468.461538 268.434783 
Q 468.461538 279.391304 468.461538 279.391304 
L 720 279.391304 
L 720 268.434783 
z
" clip-path="url(#p16538d91c6)" style="fill: #ffffff"/>
   </g>
   <g id="patch_79">
    <path d="M 470.769231 290.347826 
Q 470.769231 301.304348 470.769231 301.304348 
L 720 301.304348 
L 720 290.347826 
z
" clip-path="url(#p16538d91c6)" style="fill: #ffffff"/>
   </g>
   <g id="patch_80">
    <path d="M 470.769231 334.173913 
Q 470.769231 345.130435 470.769231 345.130435 
L 720 345.130435 
L 720 334.173913 
z
" clip-path="url(#p16538d91c6)" style="fill: #ffffff"/>
   </g>
   <g id="patch_81">
    <path d="M 471.538462 608.086957 
Q 471.538462 619.043478 471.538462 619.043478 
L 720 619.043478 
L 720 608.086957 
z
" clip-path="url(#p16538d91c6)" style="fill: #ffffff"/>
   </g>
   <g id="patch_82">
    <path d="M 471.538462 651.913043 
Q 471.538462 662.869565 471.538462 662.869565 
L 720 662.869565 
L 720 651.913043 
z
" clip-path="url(#p16538d91c6)" style="fill: #ffffff"/>
   </g>
   <g id="patch_83">
    <path d="M 474.615385 5.478261 
Q 474.615385 16.434783 474.615385 16.434783 
L 720 16.434783 
L 720 5.478261 
z
" clip-path="url(#p16538d91c6)" style="fill: #ffffff"/>
   </g>
   <g id="patch_84">
    <path d="M 490.769231 213.652174 
Q 490.769231 246.521739 490.769231 246.521739 
L 720 246.521739 
L 720 213.652174 
z
" clip-path="url(#p16538d91c6)" style="fill: #ffffff"/>
   </g>
   <g id="patch_85">
    <path d="M 490.769231 257.478261 
Q 490.769231 312.26087 490.769231 312.26087 
L 720 312.26087 
L 720 257.478261 
z
" clip-path="url(#p16538d91c6)" style="fill: #ffffff"/>
   </g>
   <g id="patch_86">
    <path d="M 493.076923 619.043478 
Q 493.076923 630 493.076923 630 
L 720 630 
L 720 619.043478 
z
" clip-path="url(#p16538d91c6)" style="fill: #ffffff"/>
   </g>
   <g id="patch_87">
    <path d="M 493.076923 662.869565 
Q 493.076923 673.826087 493.076923 673.826087 
L 720 673.826087 
L 720 662.869565 
z
" clip-path="url(#p16538d91c6)" style="fill: #ffffff"/>
   </g>
   <g id="patch_88">
    <path d="M 493.846154 936.782609 
Q 493.846154 947.73913 493.846154 947.73913 
L 720 947.73913 
L 720 936.782609 
z
" clip-path="url(#p16538d91c6)" style="fill: #ffffff"/>
   </g>
   <g id="patch_89">
    <path d="M 493.846154 980.608696 
Q 493.846154 991.565217 493.846154 991.565217 
L 720 991.565217 
L 720 980.608696 
z
" clip-path="url(#p16538d91c6)" style="fill: #ffffff"/>
   </g>
   <g id="patch_90">
    <path d="M 496.923077 246.521739 
Q 496.923077 257.478261 496.923077 257.478261 
L 720 257.478261 
L 720 246.521739 
z
" clip-path="url(#p16538d91c6)" style="fill: #ffffff"/>
   </g>
   <g id="patch_91">
    <path d="M 496.923077 312.26087 
Q 496.923077 323.217391 496.923077 323.217391 
L 720 323.217391 
L 720 312.26087 
z
" clip-path="url(#p16538d91c6)" style="fill: #ffffff"/>
   </g>
   <g id="patch_92">
    <path d="M 503.076923 191.73913 
Q 503.076923 202.695652 503.076923 202.695652 
L 720 202.695652 
L 720 191.73913 
z
" clip-path="url(#p16538d91c6)" style="fill: #ffffff"/>
   </g>
   <g id="patch_93">
    <path d="M 515.384615 180.782609 
Q 515.384615 191.73913 515.384615 191.73913 
L 720 191.73913 
L 720 180.782609 
z
" clip-path="url(#p16538d91c6)" style="fill: #ffffff"/>
   </g>
   <g id="patch_94">
    <path d="M 515.384615 947.73913 
Q 515.384615 958.695652 515.384615 958.695652 
L 720 958.695652 
L 720 947.73913 
z
" clip-path="url(#p16538d91c6)" style="fill: #ffffff"/>
   </g>
   <g id="patch_95">
    <path d="M 515.384615 991.565217 
Q 515.384615 1002.521739 515.384615 1002.521739 
L 720 1002.521739 
L 720 991.565217 
z
" clip-path="url(#p16538d91c6)" style="fill: #ffffff"/>
   </g>
   <g id="patch_96">
    <path d="M 516.923077 213.652174 
Q 516.923077 356.086957 516.923077 356.086957 
L 720 356.086957 
L 720 213.652174 
z
" clip-path="url(#p16538d91c6)" style="fill: #ffffff"/>
   </g>
   <g id="patch_97">
    <path d="M 516.923077 367.043478 
Q 516.923077 378 516.923077 378 
L 720 378 
L 720 367.043478 
z
" clip-path="url(#p16538d91c6)" style="fill: #ffffff"/>
   </g>
   <g id="patch_98">
    <path d="M 516.923077 388.956522 
Q 516.923077 575.217391 516.923077 575.217391 
L 720 575.217391 
L 720 388.956522 
z
" clip-path="url(#p16538d91c6)" style="fill: #ffffff"/>
   </g>
   <g id="patch_99">
    <path d="M 516.923077 586.173913 
Q 516.923077 597.130435 516.923077 597.130435 
L 720 597.130435 
L 720 586.173913 
z
" clip-path="url(#p16538d91c6)" style="fill: #ffffff"/>
   </g>
   <g id="patch_100">
    <path d="M 523.076923 202.695652 
Q 523.076923 213.652174 523.076923 213.652174 
L 720 213.652174 
L 720 202.695652 
z
" clip-path="url(#p16538d91c6)" style="fill: #ffffff"/>
   </g>
   <g id="patch_101">
    <path d="M 523.076923 597.130435 
Q 523.076923 608.086957 523.076923 608.086957 
L 720 608.086957 
L 720 597.130435 
z
" clip-path="url(#p16538d91c6)" style="fill: #ffffff"/>
   </g>
   <g id="patch_102">
    <path d="M 543.076923 542.347826 
Q 543.076923 575.217391 543.076923 575.217391 
L 720 575.217391 
L 720 542.347826 
z
" clip-path="url(#p16538d91c6)" style="fill: #ffffff"/>
   </g>
   <g id="patch_103">
    <path d="M 543.076923 586.173913 
Q 543.076923 640.956522 543.076923 640.956522 
L 720 640.956522 
L 720 586.173913 
z
" clip-path="url(#p16538d91c6)" style="fill: #ffffff"/>
   </g>
   <g id="patch_104">
    <path d="M 549.230769 575.217391 
Q 549.230769 586.173913 549.230769 586.173913 
L 720 586.173913 
L 720 575.217391 
z
" clip-path="url(#p16538d91c6)" style="fill: #ffffff"/>
   </g>
   <g id="patch_105">
    <path d="M 549.230769 640.956522 
Q 549.230769 651.913043 549.230769 651.913043 
L 720 651.913043 
L 720 640.956522 
z
" clip-path="url(#p16538d91c6)" style="fill: #ffffff"/>
   </g>
   <g id="patch_106">
    <path d="M 555.384615 520.434783 
Q 555.384615 531.391304 555.384615 531.391304 
L 720 531.391304 
L 720 520.434783 
z
" clip-path="url(#p16538d91c6)" style="fill: #ffffff"/>
   </g>
   <g id="patch_107">
    <path d="M 567.692308 509.478261 
Q 567.692308 520.434783 567.692308 520.434783 
L 720 520.434783 
L 720 509.478261 
z
" clip-path="url(#p16538d91c6)" style="fill: #ffffff"/>
   </g>
   <g id="patch_108">
    <path d="M 569.230769 542.347826 
Q 569.230769 706.695652 569.230769 706.695652 
L 720 706.695652 
L 720 542.347826 
z
" clip-path="url(#p16538d91c6)" style="fill: #ffffff"/>
   </g>
   <g id="patch_109">
    <path d="M 569.230769 717.652174 
Q 569.230769 728.608696 569.230769 728.608696 
L 720 728.608696 
L 720 717.652174 
z
" clip-path="url(#p16538d91c6)" style="fill: #ffffff"/>
   </g>
   <g id="patch_110">
    <path d="M 569.230769 739.565217 
Q 569.230769 903.913043 569.230769 903.913043 
L 720 903.913043 
L 720 739.565217 
z
" clip-path="url(#p16538d91c6)" style="fill: #ffffff"/>
   </g>
   <g id="patch_111">
    <path d="M 569.230769 914.869565 
Q 569.230769 925.826087 569.230769 925.826087 
L 720 925.826087 
L 720 914.869565 
z
" clip-path="url(#p16538d91c6)" style="fill: #ffffff"/>
   </g>
   <g id="patch_112">
    <path d="M 575.384615 531.391304 
Q 575.384615 542.347826 575.384615 542.347826 
L 720 542.347826 
L 720 531.391304 
z
" clip-path="url(#p16538d91c6)" style="fill: #ffffff"/>
   </g>
   <g id="patch_113">
    <path d="M 575.384615 925.826087 
Q 575.384615 936.782609 575.384615 936.782609 
L 720 936.782609 
L 720 925.826087 
z
" clip-path="url(#p16538d91c6)" style="fill: #ffffff"/>
   </g>
   <g id="patch_114">
    <path d="M 595.384615 871.043478 
Q 595.384615 903.913043 595.384615 903.913043 
L 720 903.913043 
L 720 871.043478 
z
" clip-path="url(#p16538d91c6)" style="fill: #ffffff"/>
   </g>
   <g id="patch_115">
    <path d="M 595.384615 914.869565 
Q 595.384615 969.652174 595.384615 969.652174 
L 720 969.652174 
L 720 914.869565 
z
" clip-path="url(#p16538d91c6)" style="fill: #ffffff"/>
   </g>
   <g id="patch_116">
    <path d="M 601.538462 903.913043 
Q 601.538462 914.869565 601.538462 914.869565 
L 720 914.869565 
L 720 903.913043 
z
" clip-path="url(#p16538d91c6)" style="fill: #ffffff"/>
   </g>
   <g id="patch_117">
    <path d="M 601.538462 969.652174 
Q 601.538462 980.608696 601.538462 980.608696 
L 720 980.608696 
L 720 969.652174 
z
" clip-path="url(#p16538d91c6)" style="fill: #ffffff"/>
   </g>
   <g id="patch_118">
    <path d="M 607.692308 849.130435 
Q 607.692308 860.086957 607.692308 860.086957 
L 720 860.086957 
L 720 849.130435 
z
" clip-path="url(#p16538d91c6)" style="fill: #ffffff"/>
   </g>
   <g id="patch_119">
    <path d="M 620 838.173913 
Q 620 849.130435 620 849.130435 
L 720 849.130435 
L 720 838.173913 
z
" clip-path="url(#p16538d91c6)" style="fill: #ffffff"/>
   </g>
   <g id="patch_120">
    <path d="M 621.538462 871.043478 
Q 621.538462 1008 621.538462 1008 
L 720 1008 
L 720 871.043478 
z
" clip-path="url(#p16538d91c6)" style="fill: #ffffff"/>
   </g>
   <g id="patch_121">
    <path d="M 627.692308 860.086957 
Q 627.692308 871.043478 627.692308 871.043478 
L 720 871.043478 
L 720 860.086957 
z
" clip-path="url(#p16538d91c6)" style="fill: #ffffff"/>
   </g>
   <g id="patch_122">
    <path d="M 647.692308 38.347826 
Q 647.692308 71.217391 647.692308 71.217391 
L 720 71.217391 
L 720 38.347826 
z
" clip-path="url(#p16538d91c6)" style="fill: #ffffff"/>
   </g>
   <g id="patch_123">
    <path d="M 647.692308 82.173913 
Q 647.692308 356.086957 647.692308 356.086957 
L 720 356.086957 
L 720 82.173913 
z
" clip-path="url(#p16538d91c6)" style="fill: #ffffff"/>
   </g>
   <g id="patch_124">
    <path d="M 647.692308 367.043478 
Q 647.692308 378 647.692308 378 
L 720 378 
L 720 367.043478 
z
" clip-path="url(#p16538d91c6)" style="fill: #ffffff"/>
   </g>
   <g id="patch_125">
    <path d="M 647.692308 388.956522 
Q 647.692308 399.913043 647.692308 399.913043 
L 720 399.913043 
L 720 388.956522 
z
" clip-path="url(#p16538d91c6)" style="fill: #ffffff"/>
   </g>
   <g id="patch_126">
    <path d="M 647.692308 410.869565 
Q 647.692308 706.695652 647.692308 706.695652 
L 720 706.695652 
L 720 410.869565 
z
" clip-path="url(#p16538d91c6)" style="fill: #ffffff"/>
   </g>
   <g id="patch_127">
    <path d="M 647.692308 717.652174 
Q 647.692308 728.608696 647.692308 728.608696 
L 720 728.608696 
L 720 717.652174 
z
" clip-path="url(#p16538d91c6)" style="fill: #ffffff"/>
   </g>
   <g id="patch_128">
    <path d="M 647.692308 739.565217 
Q 647.692308 1008 647.692308 1008 
L 720 1008 
L 720 739.565217 
z
" clip-path="url(#p16538d91c6)" style="fill: #ffffff"/>
   </g>
   <g id="patch_129">
    <path d="M 653.846154 71.217391 
Q 653.846154 82.173913 653.846154 82.173913 
L 720 82.173913 
L 720 71.217391 
z
" clip-path="url(#p16538d91c6)" style="fill: #ffffff"/>
   </g>
   <g id="patch_130">
    <path d="M 653.846154 356.086957 
Q 653.846154 367.043478 653.846154 367.043478 
L 720 367.043478 
L 720 356.086957 
z
" clip-path="url(#p16538d91c6)" style="fill: #ffffff"/>
   </g>
   <g id="patch_131">
    <path d="M 653.846154 378 
Q 653.846154 388.956522 653.846154 388.956522 
L 720 388.956522 
L 720 378 
z
" clip-path="url(#p16538d91c6)" style="fill: #ffffff"/>
   </g>
   <g id="patch_132">
    <path d="M 653.846154 706.695652 
Q 653.846154 717.652174 653.846154 717.652174 
L 720 717.652174 
L 720 706.695652 
z
" clip-path="url(#p16538d91c6)" style="fill: #ffffff"/>
   </g>
   <g id="patch_133">
    <path d="M 653.846154 728.608696 
Q 653.846154 739.565217 653.846154 739.565217 
L 720 739.565217 
L 720 728.608696 
z
" clip-path="url(#p16538d91c6)" style="fill: #ffffff"/>
   </g>
   <g id="patch_134">
    <path d="M 658.461538 399.913043 
Q 658.461538 410.869565 658.461538 410.869565 
L 720 410.869565 
L 720 399.913043 
z
" clip-path="url(#p16538d91c6)" style="fill: #ffffff"/>
   </g>
   <g id="patch_135">
    <path d="M 660 27.391304 
Q 660 38.347826 660 38.347826 
L 720 38.347826 
L 720 27.391304 
z
" clip-path="url(#p16538d91c6)" style="fill: #ffffff"/>
   </g>
   <g id="patch_136">
    <path d="M 713.846154 49.304348 
Q 713.846154 60.26087 713.846154 60.26087 
L 720 60.26087 
L 720 49.304348 
z
" clip-path="url(#p16538d91c6)" style="fill: #ffffff"/>
   </g>
   <g id="patch_137">
    <path d="M 80 449.217391 
Q 61.538462 449.217391 61.538462 454.695652 
" clip-path="url(#p16538d91c6)" style="fill: none; stroke: #000000; stroke-linejoin: miter"/>
   </g>
   <g id="patch_138">
    <path d="M 80 449.217391 
Q 98.461538 449.217391 98.461538 454.695652 
" clip-path="url(#p16538d91c6)" style="fill: none; stroke: #000000; stroke-linejoin: miter"/>
   </g>
   <g id="patch_139">
    <path d="M 61.538462 454.695652 
Q 61.538462 553.304348 61.538462 553.304348 
" clip-path="url(#p16538d91c6)" style="fill: none; stroke: #000000; stroke-linejoin: miter"/>
   </g>
   <g id="patch_140">
    <path d="M 98.461538 454.695652 
Q 98.461538 465.652174 98.461538 465.652174 
" clip-path="url(#p16538d91c6)" style="fill: none; stroke: #000000; stroke-linejoin: miter"/>
   </g>
   <g id="patch_141">
    <path d="M 98.461538 476.608696 
Q 98.461538 487.565217 98.461538 487.565217 
" clip-path="url(#p16538d91c6)" style="fill: none; stroke: #000000; stroke-linejoin: miter"/>
   </g>
   <g id="patch_142">
    <path d="M 98.461538 493.043478 
Q 86.153846 493.043478 86.153846 498.521739 
" clip-path="url(#p16538d91c6)" style="fill: none; stroke: #000000; stroke-linejoin: miter"/>
   </g>
   <g id="patch_143">
    <path d="M 98.461538 493.043478 
Q 123.076923 493.043478 123.076923 498.521739 
" clip-path="url(#p16538d91c6)" style="fill: none; stroke: #000000; stroke-linejoin: miter"/>
   </g>
   <g id="patch_144">
    <path d="M 98.461538 487.565217 
Q 98.461538 493.043478 98.461538 493.043478 
" clip-path="url(#p16538d91c6)" style="fill: none; stroke: #000000; stroke-linejoin: miter"/>
   </g>
   <g id="patch_145">
    <path d="M 86.153846 498.521739 
Q 86.153846 553.304348 86.153846 553.304348 
" clip-path="url(#p16538d91c6)" style="fill: none; stroke: #000000; stroke-linejoin: miter"/>
   </g>
   <g id="patch_146">
    <path d="M 123.076923 498.521739 
Q 123.076923 509.478261 123.076923 509.478261 
" clip-path="url(#p16538d91c6)" style="fill: none; stroke: #000000; stroke-linejoin: miter"/>
   </g>
   <g id="patch_147">
    <path d="M 123.076923 520.434783 
Q 123.076923 531.391304 123.076923 531.391304 
" clip-path="url(#p16538d91c6)" style="fill: none; stroke: #000000; stroke-linejoin: miter"/>
   </g>
   <g id="patch_148">
    <path d="M 123.076923 536.869565 
Q 110.769231 536.869565 110.769231 542.347826 
" clip-path="url(#p16538d91c6)" style="fill: none; stroke: #000000; stroke-linejoin: miter"/>
   </g>
   <g id="patch_149">
    <path d="M 123.076923 536.869565 
Q 135.384615 536.869565 135.384615 542.347826 
" clip-path="url(#p16538d91c6)" style="fill: none; stroke: #000000; stroke-linejoin: miter"/>
   </g>
   <g id="patch_150">
    <path d="M 123.076923 531.391304 
Q 123.076923 536.869565 123.076923 536.869565 
" clip-path="url(#p16538d91c6)" style="fill: none; stroke: #000000; stroke-linejoin: miter"/>
   </g>
   <g id="patch_151">
    <path d="M 110.769231 542.347826 
Q 110.769231 553.304348 110.769231 553.304348 
" clip-path="url(#p16538d91c6)" style="fill: none; stroke: #000000; stroke-linejoin: miter"/>
   </g>
   <g id="patch_152">
    <path d="M 135.384615 542.347826 
Q 135.384615 553.304348 135.384615 553.304348 
" clip-path="url(#p16538d91c6)" style="fill: none; stroke: #000000; stroke-linejoin: miter"/>
   </g>
   <g id="patch_153">
    <path d="M 12.307692 564.26087 
Q 12.307692 1008 12.307692 1008 
" clip-path="url(#p16538d91c6)" style="fill: none; stroke: #000000; stroke-linejoin: miter"/>
   </g>
   <g id="patch_154">
    <path d="M 36.923077 564.26087 
Q 36.923077 1008 36.923077 1008 
" clip-path="url(#p16538d91c6)" style="fill: none; stroke: #000000; stroke-linejoin: miter"/>
   </g>
   <g id="patch_155">
    <path d="M 61.538462 564.26087 
Q 61.538462 1008 61.538462 1008 
" clip-path="url(#p16538d91c6)" style="fill: none; stroke: #000000; stroke-linejoin: miter"/>
   </g>
   <g id="patch_156">
    <path d="M 86.153846 564.26087 
Q 86.153846 1008 86.153846 1008 
" clip-path="url(#p16538d91c6)" style="fill: none; stroke: #000000; stroke-linejoin: miter"/>
   </g>
   <g id="patch_157">
    <path d="M 110.769231 564.26087 
Q 110.769231 1008 110.769231 1008 
" clip-path="url(#p16538d91c6)" style="fill: none; stroke: #000000; stroke-linejoin: miter"/>
   </g>
   <g id="patch_158">
    <path d="M 135.384615 564.26087 
Q 135.384615 1008 135.384615 1008 
" clip-path="url(#p16538d91c6)" style="fill: none; stroke: #000000; stroke-linejoin: miter"/>
   </g>
   <g id="patch_159">
    <path d="M 160 564.26087 
Q 160 1008 160 1008 
" clip-path="url(#p16538d91c6)" style="fill: none; stroke: #000000; stroke-linejoin: miter"/>
   </g>
   <g id="patch_160">
    <path d="M 184.615385 564.26087 
Q 184.615385 1008 184.615385 1008 
" clip-path="url(#p16538d91c6)" style="fill: none; stroke: #000000; stroke-linejoin: miter"/>
   </g>
   <g id="patch_161">
    <path d="M 462.307692 16.434783 
Q 462.307692 71.217391 462.307692 71.217391 
" clip-path="url(#p16538d91c6)" style="fill: none; stroke: #000000; stroke-linejoin: miter"/>
   </g>
   <g id="patch_162">
    <path d="M 647.692308 38.347826 
Q 647.692308 71.217391 647.692308 71.217391 
" clip-path="url(#p16538d91c6)" style="fill: none; stroke: #000000; stroke-linejoin: miter"/>
   </g>
   <g id="patch_163">
    <path d="M 462.307692 82.173913 
Q 462.307692 246.521739 462.307692 246.521739 
" clip-path="url(#p16538d91c6)" style="fill: none; stroke: #000000; stroke-linejoin: miter"/>
   </g>
   <g id="patch_164">
    <path d="M 647.692308 82.173913 
Q 647.692308 356.086957 647.692308 356.086957 
" clip-path="url(#p16538d91c6)" style="fill: none; stroke: #000000; stroke-linejoin: miter"/>
   </g>
   <g id="patch_165">
    <path d="M 247.692308 104.086957 
Q 247.692308 115.043478 247.692308 115.043478 
" clip-path="url(#p16538d91c6)" style="fill: none; stroke: #000000; stroke-linejoin: miter"/>
   </g>
   <g id="patch_166">
    <path d="M 235.384615 126 
Q 235.384615 1008 235.384615 1008 
" clip-path="url(#p16538d91c6)" style="fill: none; stroke: #000000; stroke-linejoin: miter"/>
   </g>
   <g id="patch_167">
    <path d="M 433.846154 126 
Q 433.846154 224.608696 433.846154 224.608696 
" clip-path="url(#p16538d91c6)" style="fill: none; stroke: #000000; stroke-linejoin: miter"/>
   </g>
   <g id="patch_168">
    <path d="M 273.846154 147.913043 
Q 273.846154 158.869565 273.846154 158.869565 
" clip-path="url(#p16538d91c6)" style="fill: none; stroke: #000000; stroke-linejoin: miter"/>
   </g>
   <g id="patch_169">
    <path d="M 261.538462 169.826087 
Q 261.538462 1008 261.538462 1008 
" clip-path="url(#p16538d91c6)" style="fill: none; stroke: #000000; stroke-linejoin: miter"/>
   </g>
   <g id="patch_170">
    <path d="M 287.692308 169.826087 
Q 287.692308 224.608696 287.692308 224.608696 
" clip-path="url(#p16538d91c6)" style="fill: none; stroke: #000000; stroke-linejoin: miter"/>
   </g>
   <g id="patch_171">
    <path d="M 503.076923 191.73913 
Q 503.076923 202.695652 503.076923 202.695652 
" clip-path="url(#p16538d91c6)" style="fill: none; stroke: #000000; stroke-linejoin: miter"/>
   </g>
   <g id="patch_172">
    <path d="M 490.769231 213.652174 
Q 490.769231 246.521739 490.769231 246.521739 
" clip-path="url(#p16538d91c6)" style="fill: none; stroke: #000000; stroke-linejoin: miter"/>
   </g>
   <g id="patch_173">
    <path d="M 516.923077 213.652174 
Q 516.923077 356.086957 516.923077 356.086957 
" clip-path="url(#p16538d91c6)" style="fill: none; stroke: #000000; stroke-linejoin: miter"/>
   </g>
   <g id="patch_174">
    <path d="M 287.692308 235.565217 
Q 287.692308 312.26087 287.692308 312.26087 
" clip-path="url(#p16538d91c6)" style="fill: none; stroke: #000000; stroke-linejoin: miter"/>
   </g>
   <g id="patch_175">
    <path d="M 433.846154 235.565217 
Q 433.846154 268.434783 433.846154 268.434783 
" clip-path="url(#p16538d91c6)" style="fill: none; stroke: #000000; stroke-linejoin: miter"/>
   </g>
   <g id="patch_176">
    <path d="M 462.307692 257.478261 
Q 462.307692 268.434783 462.307692 268.434783 
" clip-path="url(#p16538d91c6)" style="fill: none; stroke: #000000; stroke-linejoin: miter"/>
   </g>
   <g id="patch_177">
    <path d="M 490.769231 257.478261 
Q 490.769231 312.26087 490.769231 312.26087 
" clip-path="url(#p16538d91c6)" style="fill: none; stroke: #000000; stroke-linejoin: miter"/>
   </g>
   <g id="patch_178">
    <path d="M 449.230769 279.391304 
Q 449.230769 290.347826 449.230769 290.347826 
" clip-path="url(#p16538d91c6)" style="fill: none; stroke: #000000; stroke-linejoin: miter"/>
   </g>
   <g id="patch_179">
    <path d="M 449.230769 323.217391 
Q 449.230769 334.173913 449.230769 334.173913 
" clip-path="url(#p16538d91c6)" style="fill: none; stroke: #000000; stroke-linejoin: miter"/>
   </g>
   <g id="patch_180">
    <path d="M 516.923077 367.043478 
Q 516.923077 378 516.923077 378 
" clip-path="url(#p16538d91c6)" style="fill: none; stroke: #000000; stroke-linejoin: miter"/>
   </g>
   <g id="patch_181">
    <path d="M 647.692308 367.043478 
Q 647.692308 378 647.692308 378 
" clip-path="url(#p16538d91c6)" style="fill: none; stroke: #000000; stroke-linejoin: miter"/>
   </g>
   <g id="patch_182">
    <path d="M 516.923077 388.956522 
Q 516.923077 575.217391 516.923077 575.217391 
" clip-path="url(#p16538d91c6)" style="fill: none; stroke: #000000; stroke-linejoin: miter"/>
   </g>
   <g id="patch_183">
    <path d="M 647.692308 388.956522 
Q 647.692308 399.913043 647.692308 399.913043 
" clip-path="url(#p16538d91c6)" style="fill: none; stroke: #000000; stroke-linejoin: miter"/>
   </g>
   <g id="patch_184">
    <path d="M 647.692308 410.869565 
Q 647.692308 706.695652 647.692308 706.695652 
" clip-path="url(#p16538d91c6)" style="fill: none; stroke: #000000; stroke-linejoin: miter"/>
   </g>
   <g id="patch_185">
    <path d="M 300 432.782609 
Q 300 443.73913 300 443.73913 
" clip-path="url(#p16538d91c6)" style="fill: none; stroke: #000000; stroke-linejoin: miter"/>
   </g>
   <g id="patch_186">
    <path d="M 287.692308 454.695652 
Q 287.692308 684.782609 287.692308 684.782609 
" clip-path="url(#p16538d91c6)" style="fill: none; stroke: #000000; stroke-linejoin: miter"/>
   </g>
   <g id="patch_187">
    <path d="M 426.153846 454.695652 
Q 426.153846 553.304348 426.153846 553.304348 
" clip-path="url(#p16538d91c6)" style="fill: none; stroke: #000000; stroke-linejoin: miter"/>
   </g>
   <g id="patch_188">
    <path d="M 326.153846 476.608696 
Q 326.153846 487.565217 326.153846 487.565217 
" clip-path="url(#p16538d91c6)" style="fill: none; stroke: #000000; stroke-linejoin: miter"/>
   </g>
   <g id="patch_189">
    <path d="M 313.846154 498.521739 
Q 313.846154 684.782609 313.846154 684.782609 
" clip-path="url(#p16538d91c6)" style="fill: none; stroke: #000000; stroke-linejoin: miter"/>
   </g>
   <g id="patch_190">
    <path d="M 340 498.521739 
Q 340 553.304348 340 553.304348 
" clip-path="url(#p16538d91c6)" style="fill: none; stroke: #000000; stroke-linejoin: miter"/>
   </g>
   <g id="patch_191">
    <path d="M 555.384615 520.434783 
Q 555.384615 531.391304 555.384615 531.391304 
" clip-path="url(#p16538d91c6)" style="fill: none; stroke: #000000; stroke-linejoin: miter"/>
   </g>
   <g id="patch_192">
    <path d="M 543.076923 542.347826 
Q 543.076923 575.217391 543.076923 575.217391 
" clip-path="url(#p16538d91c6)" style="fill: none; stroke: #000000; stroke-linejoin: miter"/>
   </g>
   <g id="patch_193">
    <path d="M 569.230769 542.347826 
Q 569.230769 706.695652 569.230769 706.695652 
" clip-path="url(#p16538d91c6)" style="fill: none; stroke: #000000; stroke-linejoin: miter"/>
   </g>
   <g id="patch_194">
    <path d="M 340 564.26087 
Q 340 640.956522 340 640.956522 
" clip-path="url(#p16538d91c6)" style="fill: none; stroke: #000000; stroke-linejoin: miter"/>
   </g>
   <g id="patch_195">
    <path d="M 426.153846 564.26087 
Q 426.153846 597.130435 426.153846 597.130435 
" clip-path="url(#p16538d91c6)" style="fill: none; stroke: #000000; stroke-linejoin: miter"/>
   </g>
   <g id="patch_196">
    <path d="M 516.923077 586.173913 
Q 516.923077 597.130435 516.923077 597.130435 
" clip-path="url(#p16538d91c6)" style="fill: none; stroke: #000000; stroke-linejoin: miter"/>
   </g>
   <g id="patch_197">
    <path d="M 543.076923 586.173913 
Q 543.076923 640.956522 543.076923 640.956522 
" clip-path="url(#p16538d91c6)" style="fill: none; stroke: #000000; stroke-linejoin: miter"/>
   </g>
   <g id="patch_198">
    <path d="M 471.538462 608.086957 
Q 471.538462 619.043478 471.538462 619.043478 
" clip-path="url(#p16538d91c6)" style="fill: none; stroke: #000000; stroke-linejoin: miter"/>
   </g>
   <g id="patch_199">
    <path d="M 471.538462 651.913043 
Q 471.538462 662.869565 471.538462 662.869565 
" clip-path="url(#p16538d91c6)" style="fill: none; stroke: #000000; stroke-linejoin: miter"/>
   </g>
   <g id="patch_200">
    <path d="M 287.692308 695.73913 
Q 287.692308 1008 287.692308 1008 
" clip-path="url(#p16538d91c6)" style="fill: none; stroke: #000000; stroke-linejoin: miter"/>
   </g>
   <g id="patch_201">
    <path d="M 313.846154 695.73913 
Q 313.846154 1008 313.846154 1008 
" clip-path="url(#p16538d91c6)" style="fill: none; stroke: #000000; stroke-linejoin: miter"/>
   </g>
   <g id="patch_202">
    <path d="M 569.230769 717.652174 
Q 569.230769 728.608696 569.230769 728.608696 
" clip-path="url(#p16538d91c6)" style="fill: none; stroke: #000000; stroke-linejoin: miter"/>
   </g>
   <g id="patch_203">
    <path d="M 647.692308 717.652174 
Q 647.692308 728.608696 647.692308 728.608696 
" clip-path="url(#p16538d91c6)" style="fill: none; stroke: #000000; stroke-linejoin: miter"/>
   </g>
   <g id="patch_204">
    <path d="M 569.230769 739.565217 
Q 569.230769 903.913043 569.230769 903.913043 
" clip-path="url(#p16538d91c6)" style="fill: none; stroke: #000000; stroke-linejoin: miter"/>
   </g>
   <g id="patch_205">
    <path d="M 647.692308 739.565217 
Q 647.692308 1008 647.692308 1008 
" clip-path="url(#p16538d91c6)" style="fill: none; stroke: #000000; stroke-linejoin: miter"/>
   </g>
   <g id="patch_206">
    <path d="M 352.307692 761.478261 
Q 352.307692 772.434783 352.307692 772.434783 
" clip-path="url(#p16538d91c6)" style="fill: none; stroke: #000000; stroke-linejoin: miter"/>
   </g>
   <g id="patch_207">
    <path d="M 340 783.391304 
Q 340 1008 340 1008 
" clip-path="url(#p16538d91c6)" style="fill: none; stroke: #000000; stroke-linejoin: miter"/>
   </g>
   <g id="patch_208">
    <path d="M 418.461538 783.391304 
Q 418.461538 882 418.461538 882 
" clip-path="url(#p16538d91c6)" style="fill: none; stroke: #000000; stroke-linejoin: miter"/>
   </g>
   <g id="patch_209">
    <path d="M 378.461538 805.304348 
Q 378.461538 816.26087 378.461538 816.26087 
" clip-path="url(#p16538d91c6)" style="fill: none; stroke: #000000; stroke-linejoin: miter"/>
   </g>
   <g id="patch_210">
    <path d="M 366.153846 827.217391 
Q 366.153846 1008 366.153846 1008 
" clip-path="url(#p16538d91c6)" style="fill: none; stroke: #000000; stroke-linejoin: miter"/>
   </g>
   <g id="patch_211">
    <path d="M 392.307692 827.217391 
Q 392.307692 882 392.307692 882 
" clip-path="url(#p16538d91c6)" style="fill: none; stroke: #000000; stroke-linejoin: miter"/>
   </g>
   <g id="patch_212">
    <path d="M 607.692308 849.130435 
Q 607.692308 860.086957 607.692308 860.086957 
" clip-path="url(#p16538d91c6)" style="fill: none; stroke: #000000; stroke-linejoin: miter"/>
   </g>
   <g id="patch_213">
    <path d="M 595.384615 871.043478 
Q 595.384615 903.913043 595.384615 903.913043 
" clip-path="url(#p16538d91c6)" style="fill: none; stroke: #000000; stroke-linejoin: miter"/>
   </g>
   <g id="patch_214">
    <path d="M 621.538462 871.043478 
Q 621.538462 1008 621.538462 1008 
" clip-path="url(#p16538d91c6)" style="fill: none; stroke: #000000; stroke-linejoin: miter"/>
   </g>
   <g id="patch_215">
    <path d="M 392.307692 892.956522 
Q 392.307692 969.652174 392.307692 969.652174 
" clip-path="url(#p16538d91c6)" style="fill: none; stroke: #000000; stroke-linejoin: miter"/>
   </g>
   <g id="patch_216">
    <path d="M 418.461538 892.956522 
Q 418.461538 925.826087 418.461538 925.826087 
" clip-path="url(#p16538d91c6)" style="fill: none; stroke: #000000; stroke-linejoin: miter"/>
   </g>
   <g id="patch_217">
    <path d="M 569.230769 914.869565 
Q 569.230769 925.826087 569.230769 925.826087 
" clip-path="url(#p16538d91c6)" style="fill: none; stroke: #000000; stroke-linejoin: miter"/>
   </g>
   <g id="patch_218">
    <path d="M 595.384615 914.869565 
Q 595.384615 969.652174 595.384615 969.652174 
" clip-path="url(#p16538d91c6)" style="fill: none; stroke: #000000; stroke-linejoin: miter"/>
   </g>
   <g id="patch_219">
    <path d="M 493.846154 936.782609 
Q 493.846154 947.73913 493.846154 947.73913 
" clip-path="url(#p16538d91c6)" style="fill: none; stroke: #000000; stroke-linejoin: miter"/>
   </g>
   <g id="patch_220">
    <path d="M 493.846154 980.608696 
Q 493.846154 991.565217 493.846154 991.565217 
" clip-path="url(#p16538d91c6)" style="fill: none; stroke: #000000; stroke-linejoin: miter"/>
   </g>
   <g id="patch_221">
    <path d="M 92.307692 476.608696 
L 92.307692 465.652174 
L 104.615385 465.652174 
L 104.615385 476.608696 
z
" clip-path="url(#p16538d91c6)" style="fill: #f7f700; stroke: #000000; stroke-linejoin: miter"/>
   </g>
   <g id="patch_222">
    <path d="M 116.923077 520.434783 
L 116.923077 509.478261 
L 129.230769 509.478261 
L 129.230769 520.434783 
z
" clip-path="url(#p16538d91c6)" style="fill: #f7f700; stroke: #000000; stroke-linejoin: miter"/>
   </g>
   <g id="patch_223">
    <path d="M 6.153846 564.26087 
L 6.153846 553.304348 
L 190.769231 553.304348 
L 190.769231 564.26087 
z
" clip-path="url(#p16538d91c6)" style="fill: #ffffff; stroke: #000000; stroke-linejoin: miter"/>
   </g>
   <g id="patch_224">
    <path d="M 450 16.434783 
L 450 5.478261 
L 474.615385 5.478261 
L 474.615385 16.434783 
z
" clip-path="url(#p16538d91c6)" style="fill: #ffffff; stroke: #000000; stroke-linejoin: miter"/>
   </g>
   <g id="patch_225">
    <path d="M 635.384615 38.347826 
L 635.384615 27.391304 
L 660 27.391304 
L 660 38.347826 
z
" clip-path="url(#p16538d91c6)" style="fill: #ffffff; stroke: #000000; stroke-linejoin: miter"/>
   </g>
   <g id="patch_226">
    <path d="M 667.692308 60.26087 
L 667.692308 49.304348 
L 713.846154 49.304348 
L 713.846154 60.26087 
z
" clip-path="url(#p16538d91c6)" style="fill: #ffffff; stroke: #000000; stroke-linejoin: miter"/>
   </g>
   <g id="patch_227">
    <path d="M 456.153846 82.173913 
L 456.153846 71.217391 
L 653.846154 71.217391 
L 653.846154 82.173913 
z
" clip-path="url(#p16538d91c6)" style="fill: #ffffff; stroke: #000000; stroke-linejoin: miter"/>
   </g>
   <g id="patch_228">
    <path d="M 235.384615 104.086957 
L 235.384615 93.130435 
L 260 93.130435 
L 260 104.086957 
z
" clip-path="url(#p16538d91c6)" style="fill: #ffffff; stroke: #000000; stroke-linejoin: miter"/>
   </g>
   <g id="patch_229">
    <path d="M 229.230769 126 
L 229.230769 115.043478 
L 440 115.043478 
L 440 126 
z
" clip-path="url(#p16538d91c6)" style="fill: #ffffff; stroke: #000000; stroke-linejoin: miter"/>
   </g>
   <g id="patch_230">
    <path d="M 261.538462 147.913043 
L 261.538462 136.956522 
L 286.153846 136.956522 
L 286.153846 147.913043 
z
" clip-path="url(#p16538d91c6)" style="fill: #ffffff; stroke: #000000; stroke-linejoin: miter"/>
   </g>
   <g id="patch_231">
    <path d="M 255.384615 169.826087 
L 255.384615 158.869565 
L 293.846154 158.869565 
L 293.846154 169.826087 
z
" clip-path="url(#p16538d91c6)" style="fill: #ffffff; stroke: #000000; stroke-linejoin: miter"/>
   </g>
   <g id="patch_232">
    <path d="M 490.769231 191.73913 
L 490.769231 180.782609 
L 515.384615 180.782609 
L 515.384615 191.73913 
z
" clip-path="url(#p16538d91c6)" style="fill: #ffffff; stroke: #000000; stroke-linejoin: miter"/>
   </g>
   <g id="patch_233">
    <path d="M 484.615385 213.652174 
L 484.615385 202.695652 
L 523.076923 202.695652 
L 523.076923 213.652174 
z
" clip-path="url(#p16538d91c6)" style="fill: #ffffff; stroke: #000000; stroke-linejoin: miter"/>
   </g>
   <g id="patch_234">
    <path d="M 281.538462 235.565217 
L 281.538462 224.608696 
L 440 224.608696 
L 440 235.565217 
z
" clip-path="url(#p16538d91c6)" style="fill: #ffffff; stroke: #000000; stroke-linejoin: miter"/>
   </g>
   <g id="patch_235">
    <path d="M 456.153846 257.478261 
L 456.153846 246.521739 
L 496.923077 246.521739 
L 496.923077 257.478261 
z
" clip-path="url(#p16538d91c6)" style="fill: #ffffff; stroke: #000000; stroke-linejoin: miter"/>
   </g>
   <g id="patch_236">
    <path d="M 427.692308 279.391304 
L 427.692308 268.434783 
L 468.461538 268.434783 
L 468.461538 279.391304 
z
" clip-path="url(#p16538d91c6)" style="fill: #ffffff; stroke: #000000; stroke-linejoin: miter"/>
   </g>
   <g id="patch_237">
    <path d="M 427.692308 301.304348 
L 427.692308 290.347826 
L 470.769231 290.347826 
L 470.769231 301.304348 
z
" clip-path="url(#p16538d91c6)" style="fill: #ffffff; stroke: #000000; stroke-linejoin: miter"/>
   </g>
   <g id="patch_238">
    <path d="M 281.538462 323.217391 
L 281.538462 312.26087 
L 496.923077 312.26087 
L 496.923077 323.217391 
z
" clip-path="url(#p16538d91c6)" style="fill: #ffffff; stroke: #000000; stroke-linejoin: miter"/>
   </g>
   <g id="patch_239">
    <path d="M 427.692308 345.130435 
L 427.692308 334.173913 
L 470.769231 334.173913 
L 470.769231 345.130435 
z
" clip-path="url(#p16538d91c6)" style="fill: #ffffff; stroke: #000000; stroke-linejoin: miter"/>
   </g>
   <g id="patch_240">
    <path d="M 510.769231 367.043478 
L 510.769231 356.086957 
L 653.846154 356.086957 
L 653.846154 367.043478 
z
" clip-path="url(#p16538d91c6)" style="fill: #ffffff; stroke: #000000; stroke-linejoin: miter"/>
   </g>
   <g id="patch_241">
    <path d="M 510.769231 388.956522 
L 510.769231 378 
L 653.846154 378 
L 653.846154 388.956522 
z
" clip-path="url(#p16538d91c6)" style="fill: #ffffff; stroke: #000000; stroke-linejoin: miter"/>
   </g>
   <g id="patch_242">
    <path d="M 636.923077 410.869565 
L 636.923077 399.913043 
L 658.461538 399.913043 
L 658.461538 410.869565 
z
" clip-path="url(#p16538d91c6)" style="fill: #ffffff; stroke: #000000; stroke-linejoin: miter"/>
   </g>
   <g id="patch_243">
    <path d="M 287.692308 432.782609 
L 287.692308 421.826087 
L 312.307692 421.826087 
L 312.307692 432.782609 
z
" clip-path="url(#p16538d91c6)" style="fill: #ffffff; stroke: #000000; stroke-linejoin: miter"/>
   </g>
   <g id="patch_244">
    <path d="M 281.538462 454.695652 
L 281.538462 443.73913 
L 432.307692 443.73913 
L 432.307692 454.695652 
z
" clip-path="url(#p16538d91c6)" style="fill: #ffffff; stroke: #000000; stroke-linejoin: miter"/>
   </g>
   <g id="patch_245">
    <path d="M 313.846154 476.608696 
L 313.846154 465.652174 
L 338.461538 465.652174 
L 338.461538 476.608696 
z
" clip-path="url(#p16538d91c6)" style="fill: #ffffff; stroke: #000000; stroke-linejoin: miter"/>
   </g>
   <g id="patch_246">
    <path d="M 307.692308 498.521739 
L 307.692308 487.565217 
L 346.153846 487.565217 
L 346.153846 498.521739 
z
" clip-path="url(#p16538d91c6)" style="fill: #ffffff; stroke: #000000; stroke-linejoin: miter"/>
   </g>
   <g id="patch_247">
    <path d="M 543.076923 520.434783 
L 543.076923 509.478261 
L 567.692308 509.478261 
L 567.692308 520.434783 
z
" clip-path="url(#p16538d91c6)" style="fill: #ffffff; stroke: #000000; stroke-linejoin: miter"/>
   </g>
   <g id="patch_248">
    <path d="M 536.923077 542.347826 
L 536.923077 531.391304 
L 575.384615 531.391304 
L 575.384615 542.347826 
z
" clip-path="url(#p16538d91c6)" style="fill: #ffffff; stroke: #000000; stroke-linejoin: miter"/>
   </g>
   <g id="patch_249">
    <path d="M 333.846154 564.26087 
L 333.846154 553.304348 
L 432.307692 553.304348 
L 432.307692 564.26087 
z
" clip-path="url(#p16538d91c6)" style="fill: #ffffff; stroke: #000000; stroke-linejoin: miter"/>
   </g>
   <g id="patch_250">
    <path d="M 510.769231 586.173913 
L 510.769231 575.217391 
L 549.230769 575.217391 
L 549.230769 586.173913 
z
" clip-path="url(#p16538d91c6)" style="fill: #ffffff; stroke: #000000; stroke-linejoin: miter"/>
   </g>
   <g id="patch_251">
    <path d="M 420 608.086957 
L 420 597.130435 
L 523.076923 597.130435 
L 523.076923 608.086957 
z
" clip-path="url(#p16538d91c6)" style="fill: #ffffff; stroke: #000000; stroke-linejoin: miter"/>
   </g>
   <g id="patch_252">
    <path d="M 450 630 
L 450 619.043478 
L 493.076923 619.043478 
L 493.076923 630 
z
" clip-path="url(#p16538d91c6)" style="fill: #ffffff; stroke: #000000; stroke-linejoin: miter"/>
   </g>
   <g id="patch_253">
    <path d="M 333.846154 651.913043 
L 333.846154 640.956522 
L 549.230769 640.956522 
L 549.230769 651.913043 
z
" clip-path="url(#p16538d91c6)" style="fill: #ffffff; stroke: #000000; stroke-linejoin: miter"/>
   </g>
   <g id="patch_254">
    <path d="M 450 673.826087 
L 450 662.869565 
L 493.076923 662.869565 
L 493.076923 673.826087 
z
" clip-path="url(#p16538d91c6)" style="fill: #ffffff; stroke: #000000; stroke-linejoin: miter"/>
   </g>
   <g id="patch_255">
    <path d="M 281.538462 695.73913 
L 281.538462 684.782609 
L 320 684.782609 
L 320 695.73913 
z
" clip-path="url(#p16538d91c6)" style="fill: #ffffff; stroke: #000000; stroke-linejoin: miter"/>
   </g>
   <g id="patch_256">
    <path d="M 563.076923 717.652174 
L 563.076923 706.695652 
L 653.846154 706.695652 
L 653.846154 717.652174 
z
" clip-path="url(#p16538d91c6)" style="fill: #ffffff; stroke: #000000; stroke-linejoin: miter"/>
   </g>
   <g id="patch_257">
    <path d="M 563.076923 739.565217 
L 563.076923 728.608696 
L 653.846154 728.608696 
L 653.846154 739.565217 
z
" clip-path="url(#p16538d91c6)" style="fill: #ffffff; stroke: #000000; stroke-linejoin: miter"/>
   </g>
   <g id="patch_258">
    <path d="M 340 761.478261 
L 340 750.521739 
L 364.615385 750.521739 
L 364.615385 761.478261 
z
" clip-path="url(#p16538d91c6)" style="fill: #ffffff; stroke: #000000; stroke-linejoin: miter"/>
   </g>
   <g id="patch_259">
    <path d="M 333.846154 783.391304 
L 333.846154 772.434783 
L 424.615385 772.434783 
L 424.615385 783.391304 
z
" clip-path="url(#p16538d91c6)" style="fill: #ffffff; stroke: #000000; stroke-linejoin: miter"/>
   </g>
   <g id="patch_260">
    <path d="M 366.153846 805.304348 
L 366.153846 794.347826 
L 390.769231 794.347826 
L 390.769231 805.304348 
z
" clip-path="url(#p16538d91c6)" style="fill: #ffffff; stroke: #000000; stroke-linejoin: miter"/>
   </g>
   <g id="patch_261">
    <path d="M 360 827.217391 
L 360 816.26087 
L 398.461538 816.26087 
L 398.461538 827.217391 
z
" clip-path="url(#p16538d91c6)" style="fill: #ffffff; stroke: #000000; stroke-linejoin: miter"/>
   </g>
   <g id="patch_262">
    <path d="M 595.384615 849.130435 
L 595.384615 838.173913 
L 620 838.173913 
L 620 849.130435 
z
" clip-path="url(#p16538d91c6)" style="fill: #ffffff; stroke: #000000; stroke-linejoin: miter"/>
   </g>
   <g id="patch_263">
    <path d="M 589.230769 871.043478 
L 589.230769 860.086957 
L 627.692308 860.086957 
L 627.692308 871.043478 
z
" clip-path="url(#p16538d91c6)" style="fill: #ffffff; stroke: #000000; stroke-linejoin: miter"/>
   </g>
   <g id="patch_264">
    <path d="M 386.153846 892.956522 
L 386.153846 882 
L 424.615385 882 
L 424.615385 892.956522 
z
" clip-path="url(#p16538d91c6)" style="fill: #ffffff; stroke: #000000; stroke-linejoin: miter"/>
   </g>
   <g id="patch_265">
    <path d="M 563.076923 914.869565 
L 563.076923 903.913043 
L 601.538462 903.913043 
L 601.538462 914.869565 
z
" clip-path="url(#p16538d91c6)" style="fill: #ffffff; stroke: #000000; stroke-linejoin: miter"/>
   </g>
   <g id="patch_266">
    <path d="M 412.307692 936.782609 
L 412.307692 925.826087 
L 575.384615 925.826087 
L 575.384615 936.782609 
z
" clip-path="url(#p16538d91c6)" style="fill: #ffffff; stroke: #000000; stroke-linejoin: miter"/>
   </g>
   <g id="patch_267">
    <path d="M 472.307692 958.695652 
L 472.307692 947.73913 
L 515.384615 947.73913 
L 515.384615 958.695652 
z
" clip-path="url(#p16538d91c6)" style="fill: #ffffff; stroke: #000000; stroke-linejoin: miter"/>
   </g>
   <g id="patch_268">
    <path d="M 386.153846 980.608696 
L 386.153846 969.652174 
L 601.538462 969.652174 
L 601.538462 980.608696 
z
" clip-path="url(#p16538d91c6)" style="fill: #ffffff; stroke: #000000; stroke-linejoin: miter"/>
   </g>
   <g id="patch_269">
    <path d="M 472.307692 1002.521739 
L 472.307692 991.565217 
L 515.384615 991.565217 
L 515.384615 1002.521739 
z
" clip-path="url(#p16538d91c6)" style="fill: #ffffff; stroke: #000000; stroke-linejoin: miter"/>
   </g>
   <g id="PathCollection_1">
    <defs>
     <path id="C0_0_0492c6a73f" d="M 0 3.320392 
C 0.880578 3.320392 1.725209 2.970534 2.347871 2.347871 
C 2.970534 1.725209 3.320392 0.880578 3.320392 -0 
C 3.320392 -0.880578 2.970534 -1.725209 2.347871 -2.347871 
C 1.725209 -2.970534 0.880578 -3.320392 0 -3.320392 
C -0.880578 -3.320392 -1.725209 -2.970534 -2.347871 -2.347871 
C -2.970534 -1.725209 -3.320392 -0.880578 -3.320392 0 
C -3.320392 0.880578 -2.970534 1.725209 -2.347871 2.347871 
C -1.725209 2.970534 -0.880578 3.320392 0 3.320392 
z
"/>
    </defs>
    <g clip-path="url(#p16538d91c6)">
     <use xlink:href="#C0_0_0492c6a73f" x="80" y="449.217391" style="fill: #d8f8d8; stroke: #d8f8d8"/>
    </g>
    <g clip-path="url(#p16538d91c6)">
     <use xlink:href="#C0_0_0492c6a73f" x="98.461538" y="493.043478" style="fill: #e8a5a5; stroke: #e8a5a5"/>
    </g>
    <g clip-path="url(#p16538d91c6)">
     <use xlink:href="#C0_0_0492c6a73f" x="123.076923" y="536.869565" style="fill: #d8f8d8; stroke: #d8f8d8"/>
    </g>
    <g clip-path="url(#p16538d91c6)">
     <use xlink:href="#C0_0_0492c6a73f" x="210.769231" y="504" style="fill: #ffffff; stroke: #ffffff"/>
    </g>
   </g>
   <g id="text_1">
    <!-- qubit -->
    <g transform="translate(63.076923 463.663655) scale(0.1 -0.1)">
     <defs>
      <path id="DejaVuSans-54" d="M 947 1747 
Q 947 1113 1208 752 
Q 1469 391 1925 391 
Q 2381 391 2643 752 
Q 2906 1113 2906 1747 
Q 2906 2381 2643 2742 
Q 2381 3103 1925 3103 
Q 1469 3103 1208 2742 
Q 947 2381 947 1747 
z
M 2906 525 
Q 2725 213 2448 61 
Q 2172 -91 1784 -91 
Q 1150 -91 751 415 
Q 353 922 353 1747 
Q 353 2572 751 3078 
Q 1150 3584 1784 3584 
Q 2172 3584 2448 3432 
Q 2725 3281 2906 2969 
L 2906 3500 
L 3481 3500 
L 3481 -1331 
L 2906 -1331 
L 2906 525 
z
" transform="scale(0.015625)"/>
      <path id="DejaVuSans-58" d="M 544 1381 
L 544 3500 
L 1119 3500 
L 1119 1403 
Q 1119 906 1312 657 
Q 1506 409 1894 409 
Q 2359 409 2629 706 
Q 2900 1003 2900 1516 
L 2900 3500 
L 3475 3500 
L 3475 0 
L 2900 0 
L 2900 538 
Q 2691 219 2414 64 
Q 2138 -91 1772 -91 
Q 1169 -91 856 284 
Q 544 659 544 1381 
z
M 1991 3584 
L 1991 3584 
z
" transform="scale(0.015625)"/>
      <path id="DejaVuSans-45" d="M 3116 1747 
Q 3116 2381 2855 2742 
Q 2594 3103 2138 3103 
Q 1681 3103 1420 2742 
Q 1159 2381 1159 1747 
Q 1159 1113 1420 752 
Q 1681 391 2138 391 
Q 2594 391 2855 752 
Q 3116 1113 3116 1747 
z
M 1159 2969 
Q 1341 3281 1617 3432 
Q 1894 3584 2278 3584 
Q 2916 3584 3314 3078 
Q 3713 2572 3713 1747 
Q 3713 922 3314 415 
Q 2916 -91 2278 -91 
Q 1894 -91 1617 61 
Q 1341 213 1159 525 
L 1159 0 
L 581 0 
L 581 4863 
L 1159 4863 
L 1159 2969 
z
" transform="scale(0.015625)"/>
      <path id="DejaVuSans-4c" d="M 603 3500 
L 1178 3500 
L 1178 0 
L 603 0 
L 603 3500 
z
M 603 4863 
L 1178 4863 
L 1178 4134 
L 603 4134 
L 603 4863 
z
" transform="scale(0.015625)"/>
      <path id="DejaVuSans-57" d="M 1172 4494 
L 1172 3500 
L 2356 3500 
L 2356 3053 
L 1172 3053 
L 1172 1153 
Q 1172 725 1289 603 
Q 1406 481 1766 481 
L 2356 481 
L 2356 0 
L 1766 0 
Q 1100 0 847 248 
Q 594 497 594 1153 
L 594 3053 
L 172 3053 
L 172 3500 
L 594 3500 
L 594 4494 
L 1172 4494 
z
" transform="scale(0.015625)"/>
     </defs>
     <use xlink:href="#DejaVuSans-54"/>
     <use xlink:href="#DejaVuSans-58" transform="translate(63.484375 0)"/>
     <use xlink:href="#DejaVuSans-45" transform="translate(126.859375 0)"/>
     <use xlink:href="#DejaVuSans-4c" transform="translate(190.34375 0)"/>
     <use xlink:href="#DejaVuSans-57" transform="translate(218.125 0)"/>
    </g>
   </g>
   <g id="text_2">
    <!-- qubit -->
    <g transform="translate(100 463.663655) scale(0.1 -0.1)">
     <use xlink:href="#DejaVuSans-54"/>
     <use xlink:href="#DejaVuSans-58" transform="translate(63.484375 0)"/>
     <use xlink:href="#DejaVuSans-45" transform="translate(126.859375 0)"/>
     <use xlink:href="#DejaVuSans-4c" transform="translate(190.34375 0)"/>
     <use xlink:href="#DejaVuSans-57" transform="translate(218.125 0)"/>
    </g>
   </g>
   <g id="text_3">
    <!-- qubit -->
    <g transform="translate(100 485.576698) scale(0.1 -0.1)">
     <use xlink:href="#DejaVuSans-54"/>
     <use xlink:href="#DejaVuSans-58" transform="translate(63.484375 0)"/>
     <use xlink:href="#DejaVuSans-45" transform="translate(126.859375 0)"/>
     <use xlink:href="#DejaVuSans-4c" transform="translate(190.34375 0)"/>
     <use xlink:href="#DejaVuSans-57" transform="translate(218.125 0)"/>
    </g>
   </g>
   <g id="text_4">
    <!-- qubit -->
    <g transform="translate(87.692308 507.489742) scale(0.1 -0.1)">
     <use xlink:href="#DejaVuSans-54"/>
     <use xlink:href="#DejaVuSans-58" transform="translate(63.484375 0)"/>
     <use xlink:href="#DejaVuSans-45" transform="translate(126.859375 0)"/>
     <use xlink:href="#DejaVuSans-4c" transform="translate(190.34375 0)"/>
     <use xlink:href="#DejaVuSans-57" transform="translate(218.125 0)"/>
    </g>
   </g>
   <g id="text_5">
    <!-- qubit -->
    <g transform="translate(124.615385 507.489742) scale(0.1 -0.1)">
     <use xlink:href="#DejaVuSans-54"/>
     <use xlink:href="#DejaVuSans-58" transform="translate(63.484375 0)"/>
     <use xlink:href="#DejaVuSans-45" transform="translate(126.859375 0)"/>
     <use xlink:href="#DejaVuSans-4c" transform="translate(190.34375 0)"/>
     <use xlink:href="#DejaVuSans-57" transform="translate(218.125 0)"/>
    </g>
   </g>
   <g id="text_6">
    <!-- qubit -->
    <g transform="translate(124.615385 529.402785) scale(0.1 -0.1)">
     <use xlink:href="#DejaVuSans-54"/>
     <use xlink:href="#DejaVuSans-58" transform="translate(63.484375 0)"/>
     <use xlink:href="#DejaVuSans-45" transform="translate(126.859375 0)"/>
     <use xlink:href="#DejaVuSans-4c" transform="translate(190.34375 0)"/>
     <use xlink:href="#DejaVuSans-57" transform="translate(218.125 0)"/>
    </g>
   </g>
   <g id="text_7">
    <!-- qubit -->
    <g transform="translate(112.307692 551.315829) scale(0.1 -0.1)">
     <use xlink:href="#DejaVuSans-54"/>
     <use xlink:href="#DejaVuSans-58" transform="translate(63.484375 0)"/>
     <use xlink:href="#DejaVuSans-45" transform="translate(126.859375 0)"/>
     <use xlink:href="#DejaVuSans-4c" transform="translate(190.34375 0)"/>
     <use xlink:href="#DejaVuSans-57" transform="translate(218.125 0)"/>
    </g>
   </g>
   <g id="text_8">
    <!-- qubit -->
    <g transform="translate(136.923077 551.315829) scale(0.1 -0.1)">
     <use xlink:href="#DejaVuSans-54"/>
     <use xlink:href="#DejaVuSans-58" transform="translate(63.484375 0)"/>
     <use xlink:href="#DejaVuSans-45" transform="translate(126.859375 0)"/>
     <use xlink:href="#DejaVuSans-4c" transform="translate(190.34375 0)"/>
     <use xlink:href="#DejaVuSans-57" transform="translate(218.125 0)"/>
    </g>
   </g>
   <g id="text_9">
    <!-- qmode -->
    <g transform="translate(13.846154 573.228872) scale(0.1 -0.1)">
     <defs>
      <path id="DejaVuSans-50" d="M 3328 2828 
Q 3544 3216 3844 3400 
Q 4144 3584 4550 3584 
Q 5097 3584 5394 3201 
Q 5691 2819 5691 2113 
L 5691 0 
L 5113 0 
L 5113 2094 
Q 5113 2597 4934 2840 
Q 4756 3084 4391 3084 
Q 3944 3084 3684 2787 
Q 3425 2491 3425 1978 
L 3425 0 
L 2847 0 
L 2847 2094 
Q 2847 2600 2669 2842 
Q 2491 3084 2119 3084 
Q 1678 3084 1418 2786 
Q 1159 2488 1159 1978 
L 1159 0 
L 581 0 
L 581 3500 
L 1159 3500 
L 1159 2956 
Q 1356 3278 1631 3431 
Q 1906 3584 2284 3584 
Q 2666 3584 2933 3390 
Q 3200 3197 3328 2828 
z
" transform="scale(0.015625)"/>
      <path id="DejaVuSans-52" d="M 1959 3097 
Q 1497 3097 1228 2736 
Q 959 2375 959 1747 
Q 959 1119 1226 758 
Q 1494 397 1959 397 
Q 2419 397 2687 759 
Q 2956 1122 2956 1747 
Q 2956 2369 2687 2733 
Q 2419 3097 1959 3097 
z
M 1959 3584 
Q 2709 3584 3137 3096 
Q 3566 2609 3566 1747 
Q 3566 888 3137 398 
Q 2709 -91 1959 -91 
Q 1206 -91 779 398 
Q 353 888 353 1747 
Q 353 2609 779 3096 
Q 1206 3584 1959 3584 
z
" transform="scale(0.015625)"/>
      <path id="DejaVuSans-47" d="M 2906 2969 
L 2906 4863 
L 3481 4863 
L 3481 0 
L 2906 0 
L 2906 525 
Q 2725 213 2448 61 
Q 2172 -91 1784 -91 
Q 1150 -91 751 415 
Q 353 922 353 1747 
Q 353 2572 751 3078 
Q 1150 3584 1784 3584 
Q 2172 3584 2448 3432 
Q 2725 3281 2906 2969 
z
M 947 1747 
Q 947 1113 1208 752 
Q 1469 391 1925 391 
Q 2381 391 2643 752 
Q 2906 1113 2906 1747 
Q 2906 2381 2643 2742 
Q 2381 3103 1925 3103 
Q 1469 3103 1208 2742 
Q 947 2381 947 1747 
z
" transform="scale(0.015625)"/>
      <path id="DejaVuSans-48" d="M 3597 1894 
L 3597 1613 
L 953 1613 
Q 991 1019 1311 708 
Q 1631 397 2203 397 
Q 2534 397 2845 478 
Q 3156 559 3463 722 
L 3463 178 
Q 3153 47 2828 -22 
Q 2503 -91 2169 -91 
Q 1331 -91 842 396 
Q 353 884 353 1716 
Q 353 2575 817 3079 
Q 1281 3584 2069 3584 
Q 2775 3584 3186 3129 
Q 3597 2675 3597 1894 
z
M 3022 2063 
Q 3016 2534 2758 2815 
Q 2500 3097 2075 3097 
Q 1594 3097 1305 2825 
Q 1016 2553 972 2059 
L 3022 2063 
z
" transform="scale(0.015625)"/>
     </defs>
     <use xlink:href="#DejaVuSans-54"/>
     <use xlink:href="#DejaVuSans-50" transform="translate(63.484375 0)"/>
     <use xlink:href="#DejaVuSans-52" transform="translate(160.890625 0)"/>
     <use xlink:href="#DejaVuSans-47" transform="translate(222.078125 0)"/>
     <use xlink:href="#DejaVuSans-48" transform="translate(285.5625 0)"/>
    </g>
   </g>
   <g id="text_10">
    <!-- qmode -->
    <g transform="translate(38.461538 573.228872) scale(0.1 -0.1)">
     <use xlink:href="#DejaVuSans-54"/>
     <use xlink:href="#DejaVuSans-50" transform="translate(63.484375 0)"/>
     <use xlink:href="#DejaVuSans-52" transform="translate(160.890625 0)"/>
     <use xlink:href="#DejaVuSans-47" transform="translate(222.078125 0)"/>
     <use xlink:href="#DejaVuSans-48" transform="translate(285.5625 0)"/>
    </g>
   </g>
   <g id="text_11">
    <!-- qmode -->
    <g transform="translate(63.076923 573.228872) scale(0.1 -0.1)">
     <use xlink:href="#DejaVuSans-54"/>
     <use xlink:href="#DejaVuSans-50" transform="translate(63.484375 0)"/>
     <use xlink:href="#DejaVuSans-52" transform="translate(160.890625 0)"/>
     <use xlink:href="#DejaVuSans-47" transform="translate(222.078125 0)"/>
     <use xlink:href="#DejaVuSans-48" transform="translate(285.5625 0)"/>
    </g>
   </g>
   <g id="text_12">
    <!-- qmode -->
    <g transform="translate(87.692308 573.228872) scale(0.1 -0.1)">
     <use xlink:href="#DejaVuSans-54"/>
     <use xlink:href="#DejaVuSans-50" transform="translate(63.484375 0)"/>
     <use xlink:href="#DejaVuSans-52" transform="translate(160.890625 0)"/>
     <use xlink:href="#DejaVuSans-47" transform="translate(222.078125 0)"/>
     <use xlink:href="#DejaVuSans-48" transform="translate(285.5625 0)"/>
    </g>
   </g>
   <g id="text_13">
    <!-- qmode -->
    <g transform="translate(112.307692 573.228872) scale(0.1 -0.1)">
     <use xlink:href="#DejaVuSans-54"/>
     <use xlink:href="#DejaVuSans-50" transform="translate(63.484375 0)"/>
     <use xlink:href="#DejaVuSans-52" transform="translate(160.890625 0)"/>
     <use xlink:href="#DejaVuSans-47" transform="translate(222.078125 0)"/>
     <use xlink:href="#DejaVuSans-48" transform="translate(285.5625 0)"/>
    </g>
   </g>
   <g id="text_14">
    <!-- qmode -->
    <g transform="translate(136.923077 573.228872) scale(0.1 -0.1)">
     <use xlink:href="#DejaVuSans-54"/>
     <use xlink:href="#DejaVuSans-50" transform="translate(63.484375 0)"/>
     <use xlink:href="#DejaVuSans-52" transform="translate(160.890625 0)"/>
     <use xlink:href="#DejaVuSans-47" transform="translate(222.078125 0)"/>
     <use xlink:href="#DejaVuSans-48" transform="translate(285.5625 0)"/>
    </g>
   </g>
   <g id="text_15">
    <!-- qmode -->
    <g transform="translate(161.538462 573.228872) scale(0.1 -0.1)">
     <use xlink:href="#DejaVuSans-54"/>
     <use xlink:href="#DejaVuSans-50" transform="translate(63.484375 0)"/>
     <use xlink:href="#DejaVuSans-52" transform="translate(160.890625 0)"/>
     <use xlink:href="#DejaVuSans-47" transform="translate(222.078125 0)"/>
     <use xlink:href="#DejaVuSans-48" transform="translate(285.5625 0)"/>
    </g>
   </g>
   <g id="text_16">
    <!-- qmode -->
    <g transform="translate(186.153846 573.228872) scale(0.1 -0.1)">
     <use xlink:href="#DejaVuSans-54"/>
     <use xlink:href="#DejaVuSans-50" transform="translate(63.484375 0)"/>
     <use xlink:href="#DejaVuSans-52" transform="translate(160.890625 0)"/>
     <use xlink:href="#DejaVuSans-47" transform="translate(222.078125 0)"/>
     <use xlink:href="#DejaVuSans-48" transform="translate(285.5625 0)"/>
    </g>
   </g>
   <g id="text_17">
    <!-- qmode -->
    <g transform="translate(463.846154 25.402785) scale(0.1 -0.1)">
     <use xlink:href="#DejaVuSans-54"/>
     <use xlink:href="#DejaVuSans-50" transform="translate(63.484375 0)"/>
     <use xlink:href="#DejaVuSans-52" transform="translate(160.890625 0)"/>
     <use xlink:href="#DejaVuSans-47" transform="translate(222.078125 0)"/>
     <use xlink:href="#DejaVuSans-48" transform="translate(285.5625 0)"/>
    </g>
   </g>
   <g id="text_18">
    <!-- qmode -->
    <g transform="translate(649.230769 47.315829) scale(0.1 -0.1)">
     <use xlink:href="#DejaVuSans-54"/>
     <use xlink:href="#DejaVuSans-50" transform="translate(63.484375 0)"/>
     <use xlink:href="#DejaVuSans-52" transform="translate(160.890625 0)"/>
     <use xlink:href="#DejaVuSans-47" transform="translate(222.078125 0)"/>
     <use xlink:href="#DejaVuSans-48" transform="translate(285.5625 0)"/>
    </g>
   </g>
   <g id="text_19">
    <!-- qmode -->
    <g transform="translate(463.846154 91.141916) scale(0.1 -0.1)">
     <use xlink:href="#DejaVuSans-54"/>
     <use xlink:href="#DejaVuSans-50" transform="translate(63.484375 0)"/>
     <use xlink:href="#DejaVuSans-52" transform="translate(160.890625 0)"/>
     <use xlink:href="#DejaVuSans-47" transform="translate(222.078125 0)"/>
     <use xlink:href="#DejaVuSans-48" transform="translate(285.5625 0)"/>
    </g>
   </g>
   <g id="text_20">
    <!-- qmode -->
    <g transform="translate(649.230769 91.141916) scale(0.1 -0.1)">
     <use xlink:href="#DejaVuSans-54"/>
     <use xlink:href="#DejaVuSans-50" transform="translate(63.484375 0)"/>
     <use xlink:href="#DejaVuSans-52" transform="translate(160.890625 0)"/>
     <use xlink:href="#DejaVuSans-47" transform="translate(222.078125 0)"/>
     <use xlink:href="#DejaVuSans-48" transform="translate(285.5625 0)"/>
    </g>
   </g>
   <g id="text_21">
    <!-- qmode -->
    <g transform="translate(249.230769 113.054959) scale(0.1 -0.1)">
     <use xlink:href="#DejaVuSans-54"/>
     <use xlink:href="#DejaVuSans-50" transform="translate(63.484375 0)"/>
     <use xlink:href="#DejaVuSans-52" transform="translate(160.890625 0)"/>
     <use xlink:href="#DejaVuSans-47" transform="translate(222.078125 0)"/>
     <use xlink:href="#DejaVuSans-48" transform="translate(285.5625 0)"/>
    </g>
   </g>
   <g id="text_22">
    <!-- qmode -->
    <g transform="translate(236.923077 134.968003) scale(0.1 -0.1)">
     <use xlink:href="#DejaVuSans-54"/>
     <use xlink:href="#DejaVuSans-50" transform="translate(63.484375 0)"/>
     <use xlink:href="#DejaVuSans-52" transform="translate(160.890625 0)"/>
     <use xlink:href="#DejaVuSans-47" transform="translate(222.078125 0)"/>
     <use xlink:href="#DejaVuSans-48" transform="translate(285.5625 0)"/>
    </g>
   </g>
   <g id="text_23">
    <!-- qmode -->
    <g transform="translate(435.384615 134.968003) scale(0.1 -0.1)">
     <use xlink:href="#DejaVuSans-54"/>
     <use xlink:href="#DejaVuSans-50" transform="translate(63.484375 0)"/>
     <use xlink:href="#DejaVuSans-52" transform="translate(160.890625 0)"/>
     <use xlink:href="#DejaVuSans-47" transform="translate(222.078125 0)"/>
     <use xlink:href="#DejaVuSans-48" transform="translate(285.5625 0)"/>
    </g>
   </g>
   <g id="text_24">
    <!-- qmode -->
    <g transform="translate(275.384615 156.881046) scale(0.1 -0.1)">
     <use xlink:href="#DejaVuSans-54"/>
     <use xlink:href="#DejaVuSans-50" transform="translate(63.484375 0)"/>
     <use xlink:href="#DejaVuSans-52" transform="translate(160.890625 0)"/>
     <use xlink:href="#DejaVuSans-47" transform="translate(222.078125 0)"/>
     <use xlink:href="#DejaVuSans-48" transform="translate(285.5625 0)"/>
    </g>
   </g>
   <g id="text_25">
    <!-- qmode -->
    <g transform="translate(263.076923 178.79409) scale(0.1 -0.1)">
     <use xlink:href="#DejaVuSans-54"/>
     <use xlink:href="#DejaVuSans-50" transform="translate(63.484375 0)"/>
     <use xlink:href="#DejaVuSans-52" transform="translate(160.890625 0)"/>
     <use xlink:href="#DejaVuSans-47" transform="translate(222.078125 0)"/>
     <use xlink:href="#DejaVuSans-48" transform="translate(285.5625 0)"/>
    </g>
   </g>
   <g id="text_26">
    <!-- qmode -->
    <g transform="translate(289.230769 178.79409) scale(0.1 -0.1)">
     <use xlink:href="#DejaVuSans-54"/>
     <use xlink:href="#DejaVuSans-50" transform="translate(63.484375 0)"/>
     <use xlink:href="#DejaVuSans-52" transform="translate(160.890625 0)"/>
     <use xlink:href="#DejaVuSans-47" transform="translate(222.078125 0)"/>
     <use xlink:href="#DejaVuSans-48" transform="translate(285.5625 0)"/>
    </g>
   </g>
   <g id="text_27">
    <!-- qmode -->
    <g transform="translate(504.615385 200.707133) scale(0.1 -0.1)">
     <use xlink:href="#DejaVuSans-54"/>
     <use xlink:href="#DejaVuSans-50" transform="translate(63.484375 0)"/>
     <use xlink:href="#DejaVuSans-52" transform="translate(160.890625 0)"/>
     <use xlink:href="#DejaVuSans-47" transform="translate(222.078125 0)"/>
     <use xlink:href="#DejaVuSans-48" transform="translate(285.5625 0)"/>
    </g>
   </g>
   <g id="text_28">
    <!-- qmode -->
    <g transform="translate(492.307692 222.620177) scale(0.1 -0.1)">
     <use xlink:href="#DejaVuSans-54"/>
     <use xlink:href="#DejaVuSans-50" transform="translate(63.484375 0)"/>
     <use xlink:href="#DejaVuSans-52" transform="translate(160.890625 0)"/>
     <use xlink:href="#DejaVuSans-47" transform="translate(222.078125 0)"/>
     <use xlink:href="#DejaVuSans-48" transform="translate(285.5625 0)"/>
    </g>
   </g>
   <g id="text_29">
    <!-- qmode -->
    <g transform="translate(518.461538 222.620177) scale(0.1 -0.1)">
     <use xlink:href="#DejaVuSans-54"/>
     <use xlink:href="#DejaVuSans-50" transform="translate(63.484375 0)"/>
     <use xlink:href="#DejaVuSans-52" transform="translate(160.890625 0)"/>
     <use xlink:href="#DejaVuSans-47" transform="translate(222.078125 0)"/>
     <use xlink:href="#DejaVuSans-48" transform="translate(285.5625 0)"/>
    </g>
   </g>
   <g id="text_30">
    <!-- qmode -->
    <g transform="translate(289.230769 244.53322) scale(0.1 -0.1)">
     <use xlink:href="#DejaVuSans-54"/>
     <use xlink:href="#DejaVuSans-50" transform="translate(63.484375 0)"/>
     <use xlink:href="#DejaVuSans-52" transform="translate(160.890625 0)"/>
     <use xlink:href="#DejaVuSans-47" transform="translate(222.078125 0)"/>
     <use xlink:href="#DejaVuSans-48" transform="translate(285.5625 0)"/>
    </g>
   </g>
   <g id="text_31">
    <!-- qmode -->
    <g transform="translate(435.384615 244.53322) scale(0.1 -0.1)">
     <use xlink:href="#DejaVuSans-54"/>
     <use xlink:href="#DejaVuSans-50" transform="translate(63.484375 0)"/>
     <use xlink:href="#DejaVuSans-52" transform="translate(160.890625 0)"/>
     <use xlink:href="#DejaVuSans-47" transform="translate(222.078125 0)"/>
     <use xlink:href="#DejaVuSans-48" transform="translate(285.5625 0)"/>
    </g>
   </g>
   <g id="text_32">
    <!-- qmode -->
    <g transform="translate(463.846154 266.446264) scale(0.1 -0.1)">
     <use xlink:href="#DejaVuSans-54"/>
     <use xlink:href="#DejaVuSans-50" transform="translate(63.484375 0)"/>
     <use xlink:href="#DejaVuSans-52" transform="translate(160.890625 0)"/>
     <use xlink:href="#DejaVuSans-47" transform="translate(222.078125 0)"/>
     <use xlink:href="#DejaVuSans-48" transform="translate(285.5625 0)"/>
    </g>
   </g>
   <g id="text_33">
    <!-- qmode -->
    <g transform="translate(492.307692 266.446264) scale(0.1 -0.1)">
     <use xlink:href="#DejaVuSans-54"/>
     <use xlink:href="#DejaVuSans-50" transform="translate(63.484375 0)"/>
     <use xlink:href="#DejaVuSans-52" transform="translate(160.890625 0)"/>
     <use xlink:href="#DejaVuSans-47" transform="translate(222.078125 0)"/>
     <use xlink:href="#DejaVuSans-48" transform="translate(285.5625 0)"/>
    </g>
   </g>
   <g id="text_34">
    <!-- qmode -->
    <g transform="translate(450.769231 288.359307) scale(0.1 -0.1)">
     <use xlink:href="#DejaVuSans-54"/>
     <use xlink:href="#DejaVuSans-50" transform="translate(63.484375 0)"/>
     <use xlink:href="#DejaVuSans-52" transform="translate(160.890625 0)"/>
     <use xlink:href="#DejaVuSans-47" transform="translate(222.078125 0)"/>
     <use xlink:href="#DejaVuSans-48" transform="translate(285.5625 0)"/>
    </g>
   </g>
   <g id="text_35">
    <!-- qmode -->
    <g transform="translate(450.769231 332.185394) scale(0.1 -0.1)">
     <use xlink:href="#DejaVuSans-54"/>
     <use xlink:href="#DejaVuSans-50" transform="translate(63.484375 0)"/>
     <use xlink:href="#DejaVuSans-52" transform="translate(160.890625 0)"/>
     <use xlink:href="#DejaVuSans-47" transform="translate(222.078125 0)"/>
     <use xlink:href="#DejaVuSans-48" transform="translate(285.5625 0)"/>
    </g>
   </g>
   <g id="text_36">
    <!-- qmode -->
    <g transform="translate(518.461538 376.011481) scale(0.1 -0.1)">
     <use xlink:href="#DejaVuSans-54"/>
     <use xlink:href="#DejaVuSans-50" transform="translate(63.484375 0)"/>
     <use xlink:href="#DejaVuSans-52" transform="translate(160.890625 0)"/>
     <use xlink:href="#DejaVuSans-47" transform="translate(222.078125 0)"/>
     <use xlink:href="#DejaVuSans-48" transform="translate(285.5625 0)"/>
    </g>
   </g>
   <g id="text_37">
    <!-- qmode -->
    <g transform="translate(649.230769 376.011481) scale(0.1 -0.1)">
     <use xlink:href="#DejaVuSans-54"/>
     <use xlink:href="#DejaVuSans-50" transform="translate(63.484375 0)"/>
     <use xlink:href="#DejaVuSans-52" transform="translate(160.890625 0)"/>
     <use xlink:href="#DejaVuSans-47" transform="translate(222.078125 0)"/>
     <use xlink:href="#DejaVuSans-48" transform="translate(285.5625 0)"/>
    </g>
   </g>
   <g id="text_38">
    <!-- qmode -->
    <g transform="translate(518.461538 397.924524) scale(0.1 -0.1)">
     <use xlink:href="#DejaVuSans-54"/>
     <use xlink:href="#DejaVuSans-50" transform="translate(63.484375 0)"/>
     <use xlink:href="#DejaVuSans-52" transform="translate(160.890625 0)"/>
     <use xlink:href="#DejaVuSans-47" transform="translate(222.078125 0)"/>
     <use xlink:href="#DejaVuSans-48" transform="translate(285.5625 0)"/>
    </g>
   </g>
   <g id="text_39">
    <!-- qmode -->
    <g transform="translate(649.230769 397.924524) scale(0.1 -0.1)">
     <use xlink:href="#DejaVuSans-54"/>
     <use xlink:href="#DejaVuSans-50" transform="translate(63.484375 0)"/>
     <use xlink:href="#DejaVuSans-52" transform="translate(160.890625 0)"/>
     <use xlink:href="#DejaVuSans-47" transform="translate(222.078125 0)"/>
     <use xlink:href="#DejaVuSans-48" transform="translate(285.5625 0)"/>
    </g>
   </g>
   <g id="text_40">
    <!-- qmode -->
    <g transform="translate(649.230769 419.837568) scale(0.1 -0.1)">
     <use xlink:href="#DejaVuSans-54"/>
     <use xlink:href="#DejaVuSans-50" transform="translate(63.484375 0)"/>
     <use xlink:href="#DejaVuSans-52" transform="translate(160.890625 0)"/>
     <use xlink:href="#DejaVuSans-47" transform="translate(222.078125 0)"/>
     <use xlink:href="#DejaVuSans-48" transform="translate(285.5625 0)"/>
    </g>
   </g>
   <g id="text_41">
    <!-- qmode -->
    <g transform="translate(301.538462 441.750611) scale(0.1 -0.1)">
     <use xlink:href="#DejaVuSans-54"/>
     <use xlink:href="#DejaVuSans-50" transform="translate(63.484375 0)"/>
     <use xlink:href="#DejaVuSans-52" transform="translate(160.890625 0)"/>
     <use xlink:href="#DejaVuSans-47" transform="translate(222.078125 0)"/>
     <use xlink:href="#DejaVuSans-48" transform="translate(285.5625 0)"/>
    </g>
   </g>
   <g id="text_42">
    <!-- qmode -->
    <g transform="translate(289.230769 463.663655) scale(0.1 -0.1)">
     <use xlink:href="#DejaVuSans-54"/>
     <use xlink:href="#DejaVuSans-50" transform="translate(63.484375 0)"/>
     <use xlink:href="#DejaVuSans-52" transform="translate(160.890625 0)"/>
     <use xlink:href="#DejaVuSans-47" transform="translate(222.078125 0)"/>
     <use xlink:href="#DejaVuSans-48" transform="translate(285.5625 0)"/>
    </g>
   </g>
   <g id="text_43">
    <!-- qmode -->
    <g transform="translate(427.692308 463.663655) scale(0.1 -0.1)">
     <use xlink:href="#DejaVuSans-54"/>
     <use xlink:href="#DejaVuSans-50" transform="translate(63.484375 0)"/>
     <use xlink:href="#DejaVuSans-52" transform="translate(160.890625 0)"/>
     <use xlink:href="#DejaVuSans-47" transform="translate(222.078125 0)"/>
     <use xlink:href="#DejaVuSans-48" transform="translate(285.5625 0)"/>
    </g>
   </g>
   <g id="text_44">
    <!-- qmode -->
    <g transform="translate(327.692308 485.576698) scale(0.1 -0.1)">
     <use xlink:href="#DejaVuSans-54"/>
     <use xlink:href="#DejaVuSans-50" transform="translate(63.484375 0)"/>
     <use xlink:href="#DejaVuSans-52" transform="translate(160.890625 0)"/>
     <use xlink:href="#DejaVuSans-47" transform="translate(222.078125 0)"/>
     <use xlink:href="#DejaVuSans-48" transform="translate(285.5625 0)"/>
    </g>
   </g>
   <g id="text_45">
    <!-- qmode -->
    <g transform="translate(315.384615 507.489742) scale(0.1 -0.1)">
     <use xlink:href="#DejaVuSans-54"/>
     <use xlink:href="#DejaVuSans-50" transform="translate(63.484375 0)"/>
     <use xlink:href="#DejaVuSans-52" transform="translate(160.890625 0)"/>
     <use xlink:href="#DejaVuSans-47" transform="translate(222.078125 0)"/>
     <use xlink:href="#DejaVuSans-48" transform="translate(285.5625 0)"/>
    </g>
   </g>
   <g id="text_46">
    <!-- qmode -->
    <g transform="translate(341.538462 507.489742) scale(0.1 -0.1)">
     <use xlink:href="#DejaVuSans-54"/>
     <use xlink:href="#DejaVuSans-50" transform="translate(63.484375 0)"/>
     <use xlink:href="#DejaVuSans-52" transform="translate(160.890625 0)"/>
     <use xlink:href="#DejaVuSans-47" transform="translate(222.078125 0)"/>
     <use xlink:href="#DejaVuSans-48" transform="translate(285.5625 0)"/>
    </g>
   </g>
   <g id="text_47">
    <!-- qmode -->
    <g transform="translate(556.923077 529.402785) scale(0.1 -0.1)">
     <use xlink:href="#DejaVuSans-54"/>
     <use xlink:href="#DejaVuSans-50" transform="translate(63.484375 0)"/>
     <use xlink:href="#DejaVuSans-52" transform="translate(160.890625 0)"/>
     <use xlink:href="#DejaVuSans-47" transform="translate(222.078125 0)"/>
     <use xlink:href="#DejaVuSans-48" transform="translate(285.5625 0)"/>
    </g>
   </g>
   <g id="text_48">
    <!-- qmode -->
    <g transform="translate(544.615385 551.315829) scale(0.1 -0.1)">
     <use xlink:href="#DejaVuSans-54"/>
     <use xlink:href="#DejaVuSans-50" transform="translate(63.484375 0)"/>
     <use xlink:href="#DejaVuSans-52" transform="translate(160.890625 0)"/>
     <use xlink:href="#DejaVuSans-47" transform="translate(222.078125 0)"/>
     <use xlink:href="#DejaVuSans-48" transform="translate(285.5625 0)"/>
    </g>
   </g>
   <g id="text_49">
    <!-- qmode -->
    <g transform="translate(570.769231 551.315829) scale(0.1 -0.1)">
     <use xlink:href="#DejaVuSans-54"/>
     <use xlink:href="#DejaVuSans-50" transform="translate(63.484375 0)"/>
     <use xlink:href="#DejaVuSans-52" transform="translate(160.890625 0)"/>
     <use xlink:href="#DejaVuSans-47" transform="translate(222.078125 0)"/>
     <use xlink:href="#DejaVuSans-48" transform="translate(285.5625 0)"/>
    </g>
   </g>
   <g id="text_50">
    <!-- qmode -->
    <g transform="translate(341.538462 573.228872) scale(0.1 -0.1)">
     <use xlink:href="#DejaVuSans-54"/>
     <use xlink:href="#DejaVuSans-50" transform="translate(63.484375 0)"/>
     <use xlink:href="#DejaVuSans-52" transform="translate(160.890625 0)"/>
     <use xlink:href="#DejaVuSans-47" transform="translate(222.078125 0)"/>
     <use xlink:href="#DejaVuSans-48" transform="translate(285.5625 0)"/>
    </g>
   </g>
   <g id="text_51">
    <!-- qmode -->
    <g transform="translate(427.692308 573.228872) scale(0.1 -0.1)">
     <use xlink:href="#DejaVuSans-54"/>
     <use xlink:href="#DejaVuSans-50" transform="translate(63.484375 0)"/>
     <use xlink:href="#DejaVuSans-52" transform="translate(160.890625 0)"/>
     <use xlink:href="#DejaVuSans-47" transform="translate(222.078125 0)"/>
     <use xlink:href="#DejaVuSans-48" transform="translate(285.5625 0)"/>
    </g>
   </g>
   <g id="text_52">
    <!-- qmode -->
    <g transform="translate(518.461538 595.141916) scale(0.1 -0.1)">
     <use xlink:href="#DejaVuSans-54"/>
     <use xlink:href="#DejaVuSans-50" transform="translate(63.484375 0)"/>
     <use xlink:href="#DejaVuSans-52" transform="translate(160.890625 0)"/>
     <use xlink:href="#DejaVuSans-47" transform="translate(222.078125 0)"/>
     <use xlink:href="#DejaVuSans-48" transform="translate(285.5625 0)"/>
    </g>
   </g>
   <g id="text_53">
    <!-- qmode -->
    <g transform="translate(544.615385 595.141916) scale(0.1 -0.1)">
     <use xlink:href="#DejaVuSans-54"/>
     <use xlink:href="#DejaVuSans-50" transform="translate(63.484375 0)"/>
     <use xlink:href="#DejaVuSans-52" transform="translate(160.890625 0)"/>
     <use xlink:href="#DejaVuSans-47" transform="translate(222.078125 0)"/>
     <use xlink:href="#DejaVuSans-48" transform="translate(285.5625 0)"/>
    </g>
   </g>
   <g id="text_54">
    <!-- qmode -->
    <g transform="translate(473.076923 617.054959) scale(0.1 -0.1)">
     <use xlink:href="#DejaVuSans-54"/>
     <use xlink:href="#DejaVuSans-50" transform="translate(63.484375 0)"/>
     <use xlink:href="#DejaVuSans-52" transform="translate(160.890625 0)"/>
     <use xlink:href="#DejaVuSans-47" transform="translate(222.078125 0)"/>
     <use xlink:href="#DejaVuSans-48" transform="translate(285.5625 0)"/>
    </g>
   </g>
   <g id="text_55">
    <!-- qmode -->
    <g transform="translate(473.076923 660.881046) scale(0.1 -0.1)">
     <use xlink:href="#DejaVuSans-54"/>
     <use xlink:href="#DejaVuSans-50" transform="translate(63.484375 0)"/>
     <use xlink:href="#DejaVuSans-52" transform="translate(160.890625 0)"/>
     <use xlink:href="#DejaVuSans-47" transform="translate(222.078125 0)"/>
     <use xlink:href="#DejaVuSans-48" transform="translate(285.5625 0)"/>
    </g>
   </g>
   <g id="text_56">
    <!-- qmode -->
    <g transform="translate(289.230769 704.707133) scale(0.1 -0.1)">
     <use xlink:href="#DejaVuSans-54"/>
     <use xlink:href="#DejaVuSans-50" transform="translate(63.484375 0)"/>
     <use xlink:href="#DejaVuSans-52" transform="translate(160.890625 0)"/>
     <use xlink:href="#DejaVuSans-47" transform="translate(222.078125 0)"/>
     <use xlink:href="#DejaVuSans-48" transform="translate(285.5625 0)"/>
    </g>
   </g>
   <g id="text_57">
    <!-- qmode -->
    <g transform="translate(315.384615 704.707133) scale(0.1 -0.1)">
     <use xlink:href="#DejaVuSans-54"/>
     <use xlink:href="#DejaVuSans-50" transform="translate(63.484375 0)"/>
     <use xlink:href="#DejaVuSans-52" transform="translate(160.890625 0)"/>
     <use xlink:href="#DejaVuSans-47" transform="translate(222.078125 0)"/>
     <use xlink:href="#DejaVuSans-48" transform="translate(285.5625 0)"/>
    </g>
   </g>
   <g id="text_58">
    <!-- qmode -->
    <g transform="translate(570.769231 726.620177) scale(0.1 -0.1)">
     <use xlink:href="#DejaVuSans-54"/>
     <use xlink:href="#DejaVuSans-50" transform="translate(63.484375 0)"/>
     <use xlink:href="#DejaVuSans-52" transform="translate(160.890625 0)"/>
     <use xlink:href="#DejaVuSans-47" transform="translate(222.078125 0)"/>
     <use xlink:href="#DejaVuSans-48" transform="translate(285.5625 0)"/>
    </g>
   </g>
   <g id="text_59">
    <!-- qmode -->
    <g transform="translate(649.230769 726.620177) scale(0.1 -0.1)">
     <use xlink:href="#DejaVuSans-54"/>
     <use xlink:href="#DejaVuSans-50" transform="translate(63.484375 0)"/>
     <use xlink:href="#DejaVuSans-52" transform="translate(160.890625 0)"/>
     <use xlink:href="#DejaVuSans-47" transform="translate(222.078125 0)"/>
     <use xlink:href="#DejaVuSans-48" transform="translate(285.5625 0)"/>
    </g>
   </g>
   <g id="text_60">
    <!-- qmode -->
    <g transform="translate(570.769231 748.53322) scale(0.1 -0.1)">
     <use xlink:href="#DejaVuSans-54"/>
     <use xlink:href="#DejaVuSans-50" transform="translate(63.484375 0)"/>
     <use xlink:href="#DejaVuSans-52" transform="translate(160.890625 0)"/>
     <use xlink:href="#DejaVuSans-47" transform="translate(222.078125 0)"/>
     <use xlink:href="#DejaVuSans-48" transform="translate(285.5625 0)"/>
    </g>
   </g>
   <g id="text_61">
    <!-- qmode -->
    <g transform="translate(649.230769 748.53322) scale(0.1 -0.1)">
     <use xlink:href="#DejaVuSans-54"/>
     <use xlink:href="#DejaVuSans-50" transform="translate(63.484375 0)"/>
     <use xlink:href="#DejaVuSans-52" transform="translate(160.890625 0)"/>
     <use xlink:href="#DejaVuSans-47" transform="translate(222.078125 0)"/>
     <use xlink:href="#DejaVuSans-48" transform="translate(285.5625 0)"/>
    </g>
   </g>
   <g id="text_62">
    <!-- qmode -->
    <g transform="translate(353.846154 770.446264) scale(0.1 -0.1)">
     <use xlink:href="#DejaVuSans-54"/>
     <use xlink:href="#DejaVuSans-50" transform="translate(63.484375 0)"/>
     <use xlink:href="#DejaVuSans-52" transform="translate(160.890625 0)"/>
     <use xlink:href="#DejaVuSans-47" transform="translate(222.078125 0)"/>
     <use xlink:href="#DejaVuSans-48" transform="translate(285.5625 0)"/>
    </g>
   </g>
   <g id="text_63">
    <!-- qmode -->
    <g transform="translate(341.538462 792.359307) scale(0.1 -0.1)">
     <use xlink:href="#DejaVuSans-54"/>
     <use xlink:href="#DejaVuSans-50" transform="translate(63.484375 0)"/>
     <use xlink:href="#DejaVuSans-52" transform="translate(160.890625 0)"/>
     <use xlink:href="#DejaVuSans-47" transform="translate(222.078125 0)"/>
     <use xlink:href="#DejaVuSans-48" transform="translate(285.5625 0)"/>
    </g>
   </g>
   <g id="text_64">
    <!-- qmode -->
    <g transform="translate(420 792.359307) scale(0.1 -0.1)">
     <use xlink:href="#DejaVuSans-54"/>
     <use xlink:href="#DejaVuSans-50" transform="translate(63.484375 0)"/>
     <use xlink:href="#DejaVuSans-52" transform="translate(160.890625 0)"/>
     <use xlink:href="#DejaVuSans-47" transform="translate(222.078125 0)"/>
     <use xlink:href="#DejaVuSans-48" transform="translate(285.5625 0)"/>
    </g>
   </g>
   <g id="text_65">
    <!-- qmode -->
    <g transform="translate(380 814.272351) scale(0.1 -0.1)">
     <use xlink:href="#DejaVuSans-54"/>
     <use xlink:href="#DejaVuSans-50" transform="translate(63.484375 0)"/>
     <use xlink:href="#DejaVuSans-52" transform="translate(160.890625 0)"/>
     <use xlink:href="#DejaVuSans-47" transform="translate(222.078125 0)"/>
     <use xlink:href="#DejaVuSans-48" transform="translate(285.5625 0)"/>
    </g>
   </g>
   <g id="text_66">
    <!-- qmode -->
    <g transform="translate(367.692308 836.185394) scale(0.1 -0.1)">
     <use xlink:href="#DejaVuSans-54"/>
     <use xlink:href="#DejaVuSans-50" transform="translate(63.484375 0)"/>
     <use xlink:href="#DejaVuSans-52" transform="translate(160.890625 0)"/>
     <use xlink:href="#DejaVuSans-47" transform="translate(222.078125 0)"/>
     <use xlink:href="#DejaVuSans-48" transform="translate(285.5625 0)"/>
    </g>
   </g>
   <g id="text_67">
    <!-- qmode -->
    <g transform="translate(393.846154 836.185394) scale(0.1 -0.1)">
     <use xlink:href="#DejaVuSans-54"/>
     <use xlink:href="#DejaVuSans-50" transform="translate(63.484375 0)"/>
     <use xlink:href="#DejaVuSans-52" transform="translate(160.890625 0)"/>
     <use xlink:href="#DejaVuSans-47" transform="translate(222.078125 0)"/>
     <use xlink:href="#DejaVuSans-48" transform="translate(285.5625 0)"/>
    </g>
   </g>
   <g id="text_68">
    <!-- qmode -->
    <g transform="translate(609.230769 858.098438) scale(0.1 -0.1)">
     <use xlink:href="#DejaVuSans-54"/>
     <use xlink:href="#DejaVuSans-50" transform="translate(63.484375 0)"/>
     <use xlink:href="#DejaVuSans-52" transform="translate(160.890625 0)"/>
     <use xlink:href="#DejaVuSans-47" transform="translate(222.078125 0)"/>
     <use xlink:href="#DejaVuSans-48" transform="translate(285.5625 0)"/>
    </g>
   </g>
   <g id="text_69">
    <!-- qmode -->
    <g transform="translate(596.923077 880.011481) scale(0.1 -0.1)">
     <use xlink:href="#DejaVuSans-54"/>
     <use xlink:href="#DejaVuSans-50" transform="translate(63.484375 0)"/>
     <use xlink:href="#DejaVuSans-52" transform="translate(160.890625 0)"/>
     <use xlink:href="#DejaVuSans-47" transform="translate(222.078125 0)"/>
     <use xlink:href="#DejaVuSans-48" transform="translate(285.5625 0)"/>
    </g>
   </g>
   <g id="text_70">
    <!-- qmode -->
    <g transform="translate(623.076923 880.011481) scale(0.1 -0.1)">
     <use xlink:href="#DejaVuSans-54"/>
     <use xlink:href="#DejaVuSans-50" transform="translate(63.484375 0)"/>
     <use xlink:href="#DejaVuSans-52" transform="translate(160.890625 0)"/>
     <use xlink:href="#DejaVuSans-47" transform="translate(222.078125 0)"/>
     <use xlink:href="#DejaVuSans-48" transform="translate(285.5625 0)"/>
    </g>
   </g>
   <g id="text_71">
    <!-- qmode -->
    <g transform="translate(393.846154 901.924524) scale(0.1 -0.1)">
     <use xlink:href="#DejaVuSans-54"/>
     <use xlink:href="#DejaVuSans-50" transform="translate(63.484375 0)"/>
     <use xlink:href="#DejaVuSans-52" transform="translate(160.890625 0)"/>
     <use xlink:href="#DejaVuSans-47" transform="translate(222.078125 0)"/>
     <use xlink:href="#DejaVuSans-48" transform="translate(285.5625 0)"/>
    </g>
   </g>
   <g id="text_72">
    <!-- qmode -->
    <g transform="translate(420 901.924524) scale(0.1 -0.1)">
     <use xlink:href="#DejaVuSans-54"/>
     <use xlink:href="#DejaVuSans-50" transform="translate(63.484375 0)"/>
     <use xlink:href="#DejaVuSans-52" transform="translate(160.890625 0)"/>
     <use xlink:href="#DejaVuSans-47" transform="translate(222.078125 0)"/>
     <use xlink:href="#DejaVuSans-48" transform="translate(285.5625 0)"/>
    </g>
   </g>
   <g id="text_73">
    <!-- qmode -->
    <g transform="translate(570.769231 923.837568) scale(0.1 -0.1)">
     <use xlink:href="#DejaVuSans-54"/>
     <use xlink:href="#DejaVuSans-50" transform="translate(63.484375 0)"/>
     <use xlink:href="#DejaVuSans-52" transform="translate(160.890625 0)"/>
     <use xlink:href="#DejaVuSans-47" transform="translate(222.078125 0)"/>
     <use xlink:href="#DejaVuSans-48" transform="translate(285.5625 0)"/>
    </g>
   </g>
   <g id="text_74">
    <!-- qmode -->
    <g transform="translate(596.923077 923.837568) scale(0.1 -0.1)">
     <use xlink:href="#DejaVuSans-54"/>
     <use xlink:href="#DejaVuSans-50" transform="translate(63.484375 0)"/>
     <use xlink:href="#DejaVuSans-52" transform="translate(160.890625 0)"/>
     <use xlink:href="#DejaVuSans-47" transform="translate(222.078125 0)"/>
     <use xlink:href="#DejaVuSans-48" transform="translate(285.5625 0)"/>
    </g>
   </g>
   <g id="text_75">
    <!-- qmode -->
    <g transform="translate(495.384615 945.750611) scale(0.1 -0.1)">
     <use xlink:href="#DejaVuSans-54"/>
     <use xlink:href="#DejaVuSans-50" transform="translate(63.484375 0)"/>
     <use xlink:href="#DejaVuSans-52" transform="translate(160.890625 0)"/>
     <use xlink:href="#DejaVuSans-47" transform="translate(222.078125 0)"/>
     <use xlink:href="#DejaVuSans-48" transform="translate(285.5625 0)"/>
    </g>
   </g>
   <g id="text_76">
    <!-- qmode -->
    <g transform="translate(495.384615 989.576698) scale(0.1 -0.1)">
     <use xlink:href="#DejaVuSans-54"/>
     <use xlink:href="#DejaVuSans-50" transform="translate(63.484375 0)"/>
     <use xlink:href="#DejaVuSans-52" transform="translate(160.890625 0)"/>
     <use xlink:href="#DejaVuSans-47" transform="translate(222.078125 0)"/>
     <use xlink:href="#DejaVuSans-48" transform="translate(285.5625 0)"/>
    </g>
   </g>
  </g>
 </g>
 <defs>
  <clipPath id="p16538d91c6">
   <rect x="0" y="0" width="720" height="1008"/>
  </clipPath>
 </defs>
</svg>
